<svg xmlns="http://www.w3.org/2000/svg" id="Layer_1" data-name="Layer 1" viewBox="0 0 370.76 286.5"><defs><style>.cls-1{fill:#008774}</style></defs><g id="logos"><path d="M208.94 212.64a79.94 79.94 0 1 0-157 21.16 79.33 79.33 0 0 0 2.48 7.56 3.29 3.29 0 0 0 3.07 2.08h21.77a3.28 3.28 0 0 0 2.89-4.85c-.86-1.55-1.63-3.15-2.34-4.78a53.6 53.6 0 1 1 98.39 0 53.45 53.45 0 0 1-2.49 5.07 3.08 3.08 0 0 0 2.71 4.57h22.24a3.09 3.09 0 0 0 2.89-2 79.26 79.26 0 0 0 2.52-7.68 79.61 79.61 0 0 0 2.87-21.13z" class="cls-1"/><path fill="#00ae9e" d="M220.23 106.34a101.39 101.39 0 0 0-98.11 127.28c.68 2.6 1.43 5.18 2.31 7.69a3.21 3.21 0 0 0 3 2.13H149a3.19 3.19 0 0 0 2.9-4.52c-.79-1.73-1.49-3.5-2.14-5.3a75.13 75.13 0 1 1 141 0q-1 2.81-2.26 5.52a3 3 0 0 0 2.75 4.3H313a3.05 3.05 0 0 0 2.88-2c.9-2.55 1.66-5.16 2.35-7.8a101.39 101.39 0 0 0-98.11-127.28z"/><path d="M276.4 133a90 90 0 1 0-179.91-5.69q-.09 2.84 0 5.69c0 2.77.14 5.5.39 8.21h26.5A63.6 63.6 0 1 1 250.05 133c0 1.16 0 2.31-.1 3.45a63.22 63.22 0 0 1-12.7 34.81 3.4 3.4 0 0 0 2.72 5.46h23a3.43 3.43 0 0 0 3-1.8 89.33 89.33 0 0 0 10.29-38.47c.07-1.14.14-2.28.14-3.45zM330.69 231.66v11.78H329v-11.78h-3.76v-1.58h9.23v1.58zm17.24 11.78v-11.05l-4.55 11.05h-.49l-4.55-11.05v11.05h-1.7v-13.36h2.61l3.89 9.71 3.89-9.71h2.61v13.36z" class="cls-1"/></g></svg>