<svg xmlns="http://www.w3.org/2000/svg" data-name="Layer 1" viewBox="0 0 25.79 29.1"><path fill="#ffd85f" d="M10 18.65a5.79 5.79 0 0 1 0-8.19 2.27 2.27 0 1 0-3.2-3.21 10.46 10.46 0 0 0-3 7.3 10.64 10.64 0 0 0 3 7.3 2.26 2.26 0 0 0 3.2-3.2z"/><path fill="#3bb4e7" d="M10 10.45a5.79 5.79 0 0 1 8.19 0 2.27 2.27 0 0 0 3.21-3.2 10.46 10.46 0 0 0-7.3-3 10.64 10.64 0 0 0-7.3 3 2.26 2.26 0 1 0 3.2 3.2z"/><path fill="#ed5c68" d="M18.17 18.65a5.79 5.79 0 0 1-8.19 0 2.27 2.27 0 1 0-3.21 3.2 10.46 10.46 0 0 0 7.3 3 10.64 10.64 0 0 0 7.3-3 2.26 2.26 0 0 0-3.2-3.2z"/><circle cx="8.4" cy="8.85" r="2.3" fill="#308bc5" transform="rotate(-45.02 8.404 8.855)"/><circle cx="8.4" cy="20.25" r="2.3" fill="#d5465f" transform="rotate(-45.02 8.403 20.25)"/></svg>