<svg xmlns="http://www.w3.org/2000/svg" data-name="Layer 1" viewBox="0 0 463.27 530.02"><path fill="#264de4" d="M413 61.13l-33 370.2-148.59 41.18-148.13-41.12-33-370.26z"/><path fill="#2965f1" d="M351.66 407.75L379.9 91.4H231.63V441z"/><path fill="#ebebeb" d="M125.94 228.73l4.06 45.41h101.63v-45.41zm105.69-91.91H117.76l4.13 45.41h109.74zm0 257.09v-47.25l-.2.05-50.57-13.66-3.23-36.22H132l6.36 71.3 93 25.82z"/><path fill="#fff" d="M287.39 274.14L282.12 333l-50.64 13.7v47.24l93.09-25.8.68-7.67 10.67-119.55 1.08-12.19 8.2-91.91H231.48v45.41h64l-4.13 46.5h-59.87v45.41z"/></svg>