<svg xmlns="http://www.w3.org/2000/svg" id="Capa_1" data-name="Capa 1" viewBox="0 0 409.5 344.74"><defs><style>.cls-3{fill:#099cec}.cls-7{fill:#fff}.cls-11{fill:#066da5}</style><clipPath id="clip-path"><path fill="none" d="M163.57 175.46c-18.17 6.3-37.73 7.21-41.81 7 13.63 11.36 37.91 32.81 77.93 20.56a62.19 62.19 0 0 1-36.12-27.56z" clip-rule="evenodd"/></clipPath><clipPath id="clip-path-2"><path fill="none" d="M-22.75-44.43h454.24v454.24H-22.75z"/></clipPath></defs><path d="M148.7 100.31h24.49v22.27H148.7zM119.75 100.31h24.49v22.27h-24.49zM177.65 100.31h24.49v22.27h-24.49zM206.59 100.31h24.49v22.27h-24.49zM235.54 100.31h24.49v22.27h-24.49zM148.7 73.59h24.49v22.27H148.7zM177.65 73.59h24.49v22.27h-24.49zM206.59 73.59h24.49v22.27h-24.49zM206.59 46.87h24.49v22.27h-24.49z" class="cls-3"/><path fill="#099cec" fill-rule="evenodd" d="M333 107.18c-5-3.38-18.23-4.83-27.84-2.24-.52-9.57-5.45-17.63-14.47-24.66L287.34 78l-2.23 3.36c-4.37 6.64-6.22 15.49-5.57 23.54.52 5 2.24 10.53 5.57 14.57-2.55 2-10.47 5.81-21.15 5.6H104.75c-2.83 16.81 2 80.7 75.71 80.7 54.71 0 99.66-24.6 120.24-76.22 6.77.11 24.65 1.21 33.4-15.69.21-.28 2.23-4.48 2.23-4.48z"/><g clip-path="url(#clip-path)"><g clip-path="url(#clip-path-2)"><path d="M110.62 164.33h100.2v53.52h-100.2z" class="cls-7"/></g></g><path fill="#066da5" fill-rule="evenodd" d="M161.54 171.54a59.59 59.59 0 0 1-29.61 7.79 60.22 60.22 0 0 1-15.74-2.08l3.18 5.34a64.79 64.79 0 0 0 44.34-7.13c-.78-1.29-1.5-2.58-2.17-3.92z"/><ellipse cx="178.48" cy="160.84" class="cls-7" rx="7.74" ry="7.79"/><path fill="#4d5c64" d="M179.65 158.65a2.21 2.21 0 0 1 .87-1.73 4.35 4.35 0 0 0-2-.51 4.45 4.45 0 1 0 4.42 4.45v-.26a2.16 2.16 0 0 1-1 .29 2.23 2.23 0 0 1-2.29-2.24z"/><path fill-rule="evenodd" d="M332.34 106.79c-5-3.36-18.71-4.94-27.86-2.28l-2 2.88c-29.84 61.76-67.18 87.86-118.2 89-55.64-.15-69.56-29.49-73.48-69.49h-8.91c-1.15 16.81 3.15 78.64 77.41 78.64 54.78 0 99.87-24.55 120.69-76.1 6.79.11 25.72.11 34.07-16.81l1.69-3.58z" opacity=".05"/><path d="M124.21 104.76h2.23v13.36h-2.23zM130.89 104.76h2.23v13.36h-2.23zM137.57 104.76h2.23v13.36h-2.23zM153.15 104.76h2.23v13.36h-2.23zM159.83 104.76h2.23v13.36h-2.23zM166.51 104.76h2.23v13.36h-2.23zM182.1 104.76h2.23v13.36h-2.23zM188.78 104.76h2.23v13.36h-2.23zM195.46 104.76h2.23v13.36h-2.23zM211.05 104.76h2.23v13.36h-2.23zM217.73 104.76h2.23v13.36h-2.23zM224.41 104.76h2.23v13.36h-2.23zM239.99 104.76h2.23v13.36h-2.23zM246.67 104.76h2.23v13.36h-2.23zM253.35 104.76h2.23v13.36h-2.23zM159.83 78.04h2.23V91.4h-2.23zM166.51 78.04h2.23V91.4h-2.23zM182.1 78.04h2.23V91.4h-2.23zM188.78 78.04h2.23V91.4h-2.23zM195.46 78.04h2.23V91.4h-2.23zM211.05 78.04h2.23V91.4h-2.23zM217.73 78.04h2.23V91.4h-2.23zM224.41 78.04h2.23V91.4h-2.23zM217.73 51.32h2.23v13.36h-2.23zM211.05 51.32h2.23v13.36h-2.23zM224.41 51.32h2.23v13.36h-2.23zM153.15 78.04h2.23V91.4h-2.23zM94.83 228.62a4.83 4.83 0 0 0-5 5v23.87a25.92 25.92 0 0 0-16.79-5.88 26.79 26.79 0 1 0 0 53.58A26 26 0 0 0 92 297.32a25.61 25.61 0 0 0 7.84-18.94v-44.79a4.75 4.75 0 0 0-1.45-3.59 4.94 4.94 0 0 0-3.56-1.38zm-6.29 56.23a17.24 17.24 0 0 1-3.59 5.33 17 17 0 0 1-5.33 3.64 16.81 16.81 0 0 1-13.16 0 16.82 16.82 0 0 1-5.31-3.61 17.05 17.05 0 0 1-3.56-5.33 16.74 16.74 0 0 1 0-13 16.81 16.81 0 0 1 8.87-8.95 16.84 16.84 0 0 1 13.16 0 17.08 17.08 0 0 1 5.33 3.64 17.28 17.28 0 0 1 3.59 5.34 16.62 16.62 0 0 1 0 13zM150.4 259.43a26.79 26.79 0 1 0 0 37.89 25.62 25.62 0 0 0 7.85-18.94 27.58 27.58 0 0 0-2-10.29 26.27 26.27 0 0 0-5.85-8.66zm-3.47 25.43a17.25 17.25 0 0 1-3.59 5.33 17 17 0 0 1-5.33 3.64 16.81 16.81 0 0 1-13.16 0 16.86 16.86 0 0 1-5.31-3.61 17.05 17.05 0 0 1-3.56-5.33 16.74 16.74 0 0 1 0-13 16.8 16.8 0 0 1 8.88-8.95 16.83 16.83 0 0 1 13.16 0 17.08 17.08 0 0 1 5.33 3.64 17.29 17.29 0 0 1 3.59 5.34 16.65 16.65 0 0 1 0 13zM260 256.56a4.62 4.62 0 0 0-.41-1.91 5.56 5.56 0 0 0-1.08-1.6 4.79 4.79 0 0 0-1.58-1.08 5 5 0 0 0-2-.38 4.88 4.88 0 0 0-2.68.76L223.7 271v-37.36a4.86 4.86 0 0 0-1.46-3.56 4.8 4.8 0 0 0-3.52-1.46 5 5 0 0 0-5 5v66.5a4.87 4.87 0 0 0 1.46 3.54 4.8 4.8 0 0 0 3.56 1.48 4.75 4.75 0 0 0 3.52-1.48 4.87 4.87 0 0 0 1.46-3.54v-17.25l5.84-3.83 22.1 24.83a4.62 4.62 0 0 0 3.35 1.29 5 5 0 0 0 2-.38 4.69 4.69 0 0 0 1.58-1.08 5.53 5.53 0 0 0 1.08-1.6 4.62 4.62 0 0 0 .41-1.91 5.07 5.07 0 0 0-1.39-3.49L238 273.54l20-13a4.46 4.46 0 0 0 2-3.98zM177.84 266.48a17.17 17.17 0 0 1 5.36-3.59 16.43 16.43 0 0 1 6.56-1.32 15.88 15.88 0 0 1 5.84 1.05 18.47 18.47 0 0 1 5.12 3.11 5.07 5.07 0 0 0 3.25 1.15 4.79 4.79 0 0 0 3.56-1.44 4.92 4.92 0 0 0 1.41-3.59 4.86 4.86 0 0 0-1.72-3.78 25.52 25.52 0 0 0-17.46-6.5 26.79 26.79 0 1 0 17.46 47.07 5 5 0 0 0 1.58-3.68 4.82 4.82 0 0 0-5-5 5.37 5.37 0 0 0-3.16 1.05 17.28 17.28 0 0 1-5.07 3.09 16.16 16.16 0 0 1-5.84 1 16.43 16.43 0 0 1-6.56-1.32 17.17 17.17 0 0 1-5.36-3.59 16.63 16.63 0 0 1-3.61-5.34 17 17 0 0 1 0-13.11 16.67 16.67 0 0 1 3.64-5.26zM361.6 254.93a9.5 9.5 0 0 0-3.37-2 19.91 19.91 0 0 0-4.45-1 38.44 38.44 0 0 0-4.52-.28 26.13 26.13 0 0 0-9 1.53 27.45 27.45 0 0 0-7.8 4.4v-1a5 5 0 0 0-5-5 5 5 0 0 0-5 5v43.63a5 5 0 0 0 10 0v-21.84a16.47 16.47 0 0 1 1.32-6.56 16.73 16.73 0 0 1 8.92-8.92 16.41 16.41 0 0 1 6.55-1.32 17.63 17.63 0 0 1 6.56 1.2 5.32 5.32 0 0 0 2.1.53 5 5 0 0 0 2-.38 4.71 4.71 0 0 0 1.58-1.08 5.54 5.54 0 0 0 1.08-1.6 4.72 4.72 0 0 0 .41-2 4.45 4.45 0 0 0-1.38-3.31zM310.27 259.43a26.79 26.79 0 1 0-18.94 45.73 25.69 25.69 0 0 0 17.51-6.51 5 5 0 0 0 1.44-3.59 4.83 4.83 0 0 0-5-5 5.25 5.25 0 0 0-3.3 1.24 15.88 15.88 0 0 1-4.88 2.87 16.8 16.8 0 0 1-5.79 1 16.62 16.62 0 0 1-5.34-.86 17.19 17.19 0 0 1-4.69-2.42 16.7 16.7 0 0 1-3.71-3.73 16.23 16.23 0 0 1-2.39-4.81h37.89a4.93 4.93 0 0 0 3.56-1.41 4.75 4.75 0 0 0 1.46-3.56 26.86 26.86 0 0 0-2-10.31 26.09 26.09 0 0 0-5.82-8.64zm-35.07 14a15.51 15.51 0 0 1 2.34-4.81 16.62 16.62 0 0 1 3.73-3.73 17.61 17.61 0 0 1 4.74-2.42 16.73 16.73 0 0 1 5.31-.86 16.5 16.5 0 0 1 5.28.86 17.11 17.11 0 0 1 8.42 6.15 16 16 0 0 1 2.42 4.81z" class="cls-11"/><path d="M335.25 114.67c.22-.36.53-1 1.2-2.36l.76-1.56.34-.71.84-1.76-4.94-3.28c-5.35-3.6-17.54-5-27.1-3.13-1.23-9-6.28-16.82-15.15-23.73l-5.26-3.53-3.46 5.23c-4.53 6.87-6.65 16.14-5.93 25a31.64 31.64 0 0 0 4.6 13.8c-3.79 2.11-10 3.84-16.66 3.93V95.85h-28.95V42.41h-33.4v26.72h-57.89v26.72H115.3v26.67h-13.21l-.31 1.87a70.78 70.78 0 0 0 .26 20.4 80.79 80.79 0 0 0 9.15 27.73c12.35 22.17 34.79 35.19 68.49 35.19 57.35 0 101.27-26.48 121.73-76.19 6.91.12 11.68-.32 17.09-2.22a29.27 29.27 0 0 0 16.75-14.63zm-99.71-14.37H260v22.22h-24.46zm-28.95-53.43h24.49v22.26h-24.49zm0 26.72h24.49v22.26h-24.49zm0 26.72h24.49v22.22h-24.49zm-28.94-26.72h24.49v22.26h-24.49zm0 26.72h24.49v22.22h-24.49zM148.7 73.59h24.49v22.26H148.7zm0 26.72h24.49v22.22H148.7zm-28.95 0h24.49v22.22h-24.49zM317 125.07c-4.87 1.71-9.29 2.1-15.91 2L300 127h-1.53l-.57 1.43c-19.48 48.85-62 74.81-118.17 74.81-32.1 0-53.05-12.16-64.61-32.9a76.33 76.33 0 0 1-8.62-26.18 71.17 71.17 0 0 1-.54-17.14H264.49c8.82-.1 17.07-2.83 21.21-6l1.83-1.42-1.53-1.87c-2.76-3.35-4.53-8.26-5.07-13.37-.63-7.8 1.26-16.07 5.21-22.06l1-1.49 1.42 1c8.64 6.75 13.08 14.25 13.55 23l.15 2.76 2.65-.71c8.67-2.34 21.37-1.2 26 1.94l1.72 1.16-.27.55-.69 1.39c-.1.19-.18.35-.39.73A24.84 24.84 0 0 1 317 125.07zM346.25 302.4a2.93 2.93 0 1 1-2.92-2.85 2.87 2.87 0 0 1 2.92 2.85zm-5.13 0a2.21 2.21 0 0 0 2.23 2.28 2.18 2.18 0 0 0 2.18-2.26 2.2 2.2 0 1 0-4.4 0zm1.76 1.5h-.66V301a5.75 5.75 0 0 1 1.1-.09 1.78 1.78 0 0 1 1 .21.79.79 0 0 1 .28.63.73.73 0 0 1-.59.66.84.84 0 0 1 .52.7 2.17 2.17 0 0 0 .21.71H344a2.49 2.49 0 0 1-.23-.7c-.05-.31-.23-.45-.59-.45h-.31zm0-1.62h.31c.37 0 .66-.12.66-.42s-.19-.44-.61-.44a1.62 1.62 0 0 0-.37 0z" class="cls-11"/></svg>