<svg xmlns="http://www.w3.org/2000/svg" id="svg2816" viewBox="0 0 413.7 394"><defs><style>.cls-6{fill:#1969bc}.cls-14{fill:#0d82ca}.cls-24{fill:#1e5cb3}</style><linearGradient id="linear-gradient" x1="-474.09" x2="-473.09" y1="585.51" y2="585.51" gradientTransform="matrix(0 149.73 149.73 0 -87483.78 71037.07)" gradientUnits="userSpaceOnUse"><stop offset="0" stop-color="#0994dc"/><stop offset=".35" stop-color="#66cef5"/><stop offset=".85" stop-color="#127bca"/><stop offset="1" stop-color="#127bca"/></linearGradient><linearGradient id="linear-gradient-2" x1="-474.13" x2="-473.13" y1="585.42" y2="585.42" gradientTransform="matrix(0 153.55 153.55 0 -89698.98 72848.36)" gradientUnits="userSpaceOnUse"><stop offset="0" stop-color="#0e76bc"/><stop offset=".36" stop-color="#36aee8"/><stop offset=".85" stop-color="#00adef"/><stop offset="1" stop-color="#00adef"/></linearGradient><linearGradient id="linear-gradient-3" x1="-477.56" x2="-476.56" y1="577.7" y2="577.7" gradientTransform="matrix(0 -122.18 -122.18 0 70805.93 -58181.56)" gradientUnits="userSpaceOnUse"><stop offset="0" stop-color="#1c63b7"/><stop offset=".5" stop-color="#33bdf2"/><stop offset="1" stop-color="#33bdf2" stop-opacity=".42"/></linearGradient><linearGradient id="linear-gradient-4" x1="-474.19" x2="-473.19" y1="585.29" y2="585.29" gradientTransform="matrix(0 159.43 159.43 0 -93095.21 75627.08)" gradientUnits="userSpaceOnUse"><stop offset="0" stop-color="#166ab8"/><stop offset=".4" stop-color="#36aee8"/><stop offset=".85" stop-color="#0798dd"/><stop offset="1" stop-color="#0798dd"/></linearGradient><linearGradient id="linear-gradient-5" x1="-474.28" x2="-473.28" y1="585.1" y2="585.1" gradientTransform="matrix(0 169.53 169.53 0 -98987.35 80433.11)" gradientUnits="userSpaceOnUse"><stop offset="0" stop-color="#124379"/><stop offset=".39" stop-color="#1487cb"/><stop offset=".78" stop-color="#165197"/><stop offset="1" stop-color="#165197"/></linearGradient><linearGradient id="linear-gradient-6" x1="613.07" x2="619.01" y1="-1544.65" y2="-1544.65" gradientTransform="matrix(4.04 0 0 -4.04 -2341.27 -6155.72)" gradientUnits="userSpaceOnUse"><stop offset="0" stop-color="#33bdf2" stop-opacity=".7"/><stop offset="1" stop-color="#1dacd8"/></linearGradient><linearGradient id="linear-gradient-7" x1="-477.61" x2="-476.61" y1="577.59" y2="577.59" gradientTransform="matrix(0 -119.02 -119.02 0 69058.31 -56681.71)" gradientUnits="userSpaceOnUse"><stop offset="0" stop-color="#136ab4"/><stop offset=".6" stop-color="#59caf5" stop-opacity=".55"/><stop offset="1" stop-color="#59caf5" stop-opacity=".24"/></linearGradient><linearGradient id="linear-gradient-8" x1="592.01" x2="614.02" y1="-1551.69" y2="-1551.69" gradientTransform="matrix(4.04 0 0 -4.04 -2341.27 -6155.72)" gradientUnits="userSpaceOnUse"><stop offset="0" stop-color="#05a1e6" stop-opacity=".25"/><stop offset="1" stop-color="#05a1e6"/></linearGradient><linearGradient id="linear-gradient-9" x1="-477.56" x2="-476.56" y1="577.69" y2="577.69" gradientTransform="matrix(0 -121.87 -121.87 0 70499.33 -58032.8)" gradientUnits="userSpaceOnUse"><stop offset="0" stop-color="#318ed5"/><stop offset="1" stop-color="#38a7e4"/></linearGradient><linearGradient id="linear-gradient-10" x1="-477.62" x2="-476.62" y1="577.57" y2="577.57" gradientTransform="matrix(0 -118.46 -118.46 0 68524.95 -56412.51)" gradientUnits="userSpaceOnUse"><stop offset="0" stop-color="#05a1e6"/><stop offset="1" stop-color="#05a1e6" stop-opacity=".55"/></linearGradient><linearGradient id="linear-gradient-11" x1="-477.98" x2="-476.98" y1="576.76" y2="576.76" gradientTransform="matrix(0 -100.1 -100.1 0 57846.16 -47673.83)" gradientUnits="userSpaceOnUse"><stop offset="0" stop-color="#1959a6"/><stop offset=".5" stop-color="#05a1e6"/><stop offset=".92" stop-color="#7ec5ea"/><stop offset="1" stop-color="#7ec5ea"/></linearGradient><linearGradient id="linear-gradient-12" x1="-478.56" x2="-477.56" y1="577.68" y2="577.68" gradientTransform="scale(-110.21 110.21) rotate(-79.999 -583.125 5.06)" gradientUnits="userSpaceOnUse"><stop offset="0" stop-color="#165096"/><stop offset="1" stop-color="#0d82ca"/></linearGradient><linearGradient id="linear-gradient-13" x1="-479.76" x2="-478.76" y1="572.74" y2="572.74" gradientTransform="matrix(0 -56.72 -56.72 0 32780.65 -27108.12)" gradientUnits="userSpaceOnUse"><stop offset="0" stop-color="#05a1e6"/><stop offset=".87" stop-color="#0495d6"/><stop offset="1" stop-color="#0495d6"/></linearGradient><linearGradient id="linear-gradient-14" x1="-474.61" x2="-473.61" y1="586.2" y2="586.2" gradientTransform="scale(-132.8 132.8) rotate(80.001 110.608 574.642)" gradientUnits="userSpaceOnUse"><stop offset="0" stop-color="#38a7e4" stop-opacity=".33"/><stop offset=".96" stop-color="#0e88d3"/><stop offset="1" stop-color="#0e88d3"/></linearGradient><linearGradient id="linear-gradient-15" x1="-473.77" x2="-472.77" y1="586.24" y2="586.24" gradientTransform="matrix(0 123.74 123.74 0 -72242.83 58671.71)" gradientUnits="userSpaceOnUse"><stop offset="0" stop-color="#168cd4"/><stop offset=".5" stop-color="#1c87cc"/><stop offset="1" stop-color="#154b8d"/></linearGradient><linearGradient id="linear-gradient-16" x1="-457.04" x2="-456.04" y1="581.54" y2="581.54" gradientTransform="matrix(28.5 11.82 11.82 -28.5 6294.4 22023.32)" gradientUnits="userSpaceOnUse"><stop offset="0" stop-color="#97d6ee"/><stop offset=".7" stop-color="#55c1ea"/><stop offset="1" stop-color="#55c1ea"/></linearGradient><linearGradient id="linear-gradient-17" x1="-460.2" x2="-459.2" y1="564.64" y2="564.64" gradientTransform="scale(24.72 -24.72) rotate(24.4 1084.74 1360.123)" gradientUnits="userSpaceOnUse"><stop offset="0" stop-color="#7accec"/><stop offset="1" stop-color="#3fb7ed"/></linearGradient><linearGradient id="linear-gradient-18" x1="-473.72" x2="-472.72" y1="586.34" y2="586.34" gradientTransform="matrix(0 121.03 121.03 0 -70682.4 57389.58)" gradientUnits="userSpaceOnUse"><stop offset="0" stop-color="#1da7e7"/><stop offset="1" stop-color="#37abe7" stop-opacity="0"/></linearGradient></defs><g id="layer1"><path id="path12245" d="M310.24 160.2h-2.8v8.69h-1.14v-8.69h-2.8v-1h6.74z"/><path id="path12257" d="M321.69 168.89h-1.14v-6.53c0-.51 0-1.15.09-1.89a6.64 6.64 0 0 1-.3.95l-3.34 7.47h-.56l-3.32-7.42a5.38 5.38 0 0 1-.3-1c0 .39.05 1 .05 1.9v6.52h-1.09v-9.73h1.5l3 6.79a8.83 8.83 0 0 1 .44 1.17c.2-.54.36-.93.47-1.2l3-6.76h1.43v9.73z"/><path id="path12261" d="M312.84 205a1.41 1.41 0 0 0-.44-1.16 2.77 2.77 0 0 0-1.7-.41h-1.15v3.15h1.38c1.28 0 1.91-.53 1.91-1.59m1.79 6.57h-1.57l-1-2.22c-.51-1.11-1.06-1.67-1.65-1.67h-.85v3.88h-1.3v-9.24h2.6a3.86 3.86 0 0 1 2.62.77 2.22 2.22 0 0 1 .76 1.74 2.27 2.27 0 0 1-.62 1.61 3.11 3.11 0 0 1-1.73.91c.51.12 1 .69 1.53 1.71l1.22 2.46zm2.87-4.56a6.17 6.17 0 0 0-1.86-4.57 6.45 6.45 0 1 0-4.54 11 6.35 6.35 0 0 0 6.4-6.44m.87 0a6.89 6.89 0 0 1-2.11 5.13 7.6 7.6 0 0 1-10.38.06 7.38 7.38 0 0 1 0-10.26 7.55 7.55 0 0 1 10.33-.1 6.85 6.85 0 0 1 2.13 5.16"/><path id="path12265" d="M120.93 232.77h-4.48v-25.63c0-2 .13-4.49.37-7.4h-.1a24.26 24.26 0 0 1-1.14 3.7l-13 29.32h-2.18l-13-29.11a21.28 21.28 0 0 1-1.14-3.91h-.1c.14 1.53.21 4 .21 7.45v25.57H82v-38.15h5.91l11.71 26.61a34.41 34.41 0 0 1 1.73 4.57h.19c.76-2.08 1.37-3.65 1.83-4.68l12-26.5h5.6v38.16z"/><path id="path12267" d="M134.7 232.77h-4.35v-27.25h4.35zm.75-37a2.72 2.72 0 0 1-.84 2 2.77 2.77 0 0 1-2 .83 2.81 2.81 0 0 1-2-.8 2.9 2.9 0 0 1 0-4.06 2.93 2.93 0 0 1 4 0 2.69 2.69 0 0 1 .84 2"/><path id="path12271" d="M161.9 231.5a14 14 0 0 1-7.47 1.92 12.29 12.29 0 0 1-9.45-3.89 13.76 13.76 0 0 1-3.51-9.74q0-6.69 3.85-10.82t10.33-4.12a13.91 13.91 0 0 1 6.3 1.38v4.48a11.06 11.06 0 0 0-6.49-2.14 8.73 8.73 0 0 0-6.78 2.9 11.25 11.25 0 0 0-2.75 7.93 10.81 10.81 0 0 0 2.52 7.53 8.67 8.67 0 0 0 6.74 2.77 11 11 0 0 0 6.7-2.34v4.14z"/><path id="path12275" d="M182.71 209.94a5.83 5.83 0 0 0-7.8 1.51 12 12 0 0 0-2 7.42v13.89h-4.41v-27.25h4.36v5.62h.1a9.57 9.57 0 0 1 3-4.6 6.53 6.53 0 0 1 4.14-1.53 7.08 7.08 0 0 1 2.61.37v4.52z"/><path id="path12279" d="M207 219.19q0-5.23-2.36-8a8.05 8.05 0 0 0-6.42-2.64 8.41 8.41 0 0 0-6.51 2.67q-2.58 2.85-2.58 8.06c0 3.26.82 5.82 2.47 7.65a8.44 8.44 0 0 0 6.62 2.76 8 8 0 0 0 6.57-2.79q2.21-2.73 2.21-7.72m4.47-.15q0 6.51-3.67 10.44a12.91 12.91 0 0 1-9.9 3.94 12.52 12.52 0 0 1-9.73-3.94 14.19 14.19 0 0 1-3.51-10c0-4.74 1.33-8.4 4-11q3.7-3.61 9.89-3.62c4.06 0 7.24 1.27 9.53 3.78s3.41 6 3.41 10.41"/><path id="path12283" d="M233.12 225.48a7.09 7.09 0 0 1-2.5 5.55 11 11 0 0 1-7.48 2.39 13.37 13.37 0 0 1-6.76-1.64v-4.69a11 11 0 0 0 7.08 2.61q5.18 0 5.18-3.81a3.37 3.37 0 0 0-1.15-2.63 18.14 18.14 0 0 0-4.47-2.5 14.35 14.35 0 0 1-4.87-3.09 7.52 7.52 0 0 1 1-10.57 10.39 10.39 0 0 1 6.92-2.26 12.93 12.93 0 0 1 5.83 1.28v4.39a10.28 10.28 0 0 0-6.18-1.94 5.35 5.35 0 0 0-3.47 1.06 3.4 3.4 0 0 0-1.31 2.75 3.64 3.64 0 0 0 1.1 2.82 15.16 15.16 0 0 0 4.09 2.26 15.75 15.75 0 0 1 5 3 6.72 6.72 0 0 1 2 5"/><path id="path12287" d="M259.78 219.19q0-5.23-2.37-8a8 8 0 0 0-6.41-2.64 8.44 8.44 0 0 0-6.52 2.67q-2.57 2.85-2.57 8.06c0 3.26.82 5.82 2.45 7.65a8.51 8.51 0 0 0 6.64 2.77 8 8 0 0 0 6.57-2.79q2.21-2.73 2.21-7.72m4.48-.15c0 4.34-1.24 7.83-3.69 10.44a12.87 12.87 0 0 1-9.89 3.94 12.52 12.52 0 0 1-9.74-3.94 14.19 14.19 0 0 1-3.51-10c0-4.74 1.34-8.4 4-11q3.7-3.61 9.9-3.62c4.06 0 7.23 1.27 9.52 3.78s3.43 6 3.43 10.41"/><path id="path12291" d="M283.48 196.26a5.86 5.86 0 0 0-2.9-.72c-3.05 0-4.57 1.92-4.57 5.78v4.2h6.39v3.7H276v23.55h-4.37v-23.56H267v-3.7h4.63v-4.41a9 9 0 0 1 2.79-7 8.36 8.36 0 0 1 5.89-2.21 8.53 8.53 0 0 1 3.16.47z"/><path id="path12295" d="M300.7 232.49a8.23 8.23 0 0 1-4.1.88q-7.13 0-7.13-8v-16.16h-4.67v-3.7h4.67v-6.65c1.39-.44 2.84-.92 4.37-1.41v8.06h6.86v3.7h-6.86v15.38a6.23 6.23 0 0 0 .92 3.89 3.76 3.76 0 0 0 3.11 1.17 4.62 4.62 0 0 0 2.82-.88v3.72z"/><path id="path12299" d="M64.91 339.12A7.92 7.92 0 0 1 57 347a7.26 7.26 0 0 1-5.44-2.34 8.05 8.05 0 0 1 0-11.13 7.28 7.28 0 0 1 5.44-2.3 7.54 7.54 0 0 1 5.58 2.33 7.63 7.63 0 0 1 2.3 5.55"/><path id="path12303" d="M162.57 345.39h-14.23l-51.63-79.74a36.59 36.59 0 0 1-3.13-6.28h-.42a103.9 103.9 0 0 1 .56 13.74v72.28H82v-100h15.2l50.09 78.49c2 3.11 3.36 5.35 4 6.69h.28a105.4 105.4 0 0 1-.71-14.71v-70.51h11.66v100z"/><path id="path12307" d="M237.75 345.39h-53v-100h50.72v10.6h-39v33.28h36.14v10.61h-36.17v35h41.31z"/><path id="path12311" d="M318.18 255.95h-28.82v89.45h-11.72v-89.45h-28.88v-10.61h69.42v10.61z"/><path id="path12339" fill="url(#linear-gradient)" d="M158.59 72.54c11.31 34.59 15.6 96.31 48.68 96.31a40.75 40.75 0 0 0 7.62-.73c-30.07-7-33.64-68.05-52-99.67-1.44 1.31-2.87 2.67-4.31 4.09"/><path id="path12367" fill="url(#linear-gradient-2)" d="M162.9 68.45c18.35 31.61 21.91 92.65 52 99.67a47.85 47.85 0 0 0 7.1-1.92c-27-13.23-34.45-72.5-55.29-101q-1.89 1.58-3.8 3.29"/><path id="path12379" fill="#14559a" d="M189.34 49.65a40.87 40.87 0 0 0-7.62.73 58.36 58.36 0 0 0-20.35 8.51 50.51 50.51 0 0 1 5.33 6.27c7-5.79 13.9-10.06 20.8-12.63a46.37 46.37 0 0 1 7.76-2.16 23.9 23.9 0 0 0-5.92-.72"/><path id="path12459" fill="url(#linear-gradient-3)" d="M243.06 154q4.14-3.29 8.3-7.27c-11.49-34.43-15.61-97-48.92-97a39.43 39.43 0 0 0-7.18.67c30.34 7.55 34.23 73.57 47.81 103.64"/><path id="path12521" fill="#3092c4" d="M195.26 50.37a23.93 23.93 0 0 0-5.92-.72h13.1a39 39 0 0 0-7.18.67"/><path id="path12525" d="M242.48 161.32a49.34 49.34 0 0 1-3.76-4.06A68.93 68.93 0 0 1 222 166.2a25.78 25.78 0 0 0 6.24 2.13 26.44 26.44 0 0 0 5.32.53c6.22 0 11.15-.74 15.34-2.75a29.12 29.12 0 0 1-6.4-4.78" class="cls-6"/><path id="path12553" fill="url(#linear-gradient-4)" d="M187.5 52.53c27.18 14.22 29.54 78.59 51.23 104.73 1.45-1 2.89-2.11 4.33-3.26-13.57-30.07-17.46-96.1-47.8-103.64a47 47 0 0 0-7.76 2.17"/><path id="path12581" fill="url(#linear-gradient-5)" d="M166.7 65.16C187.54 93.69 195 153 222 166.2a68.93 68.93 0 0 0 16.73-8.94c-21.69-26.14-24-90.51-51.23-104.73-6.9 2.56-13.83 6.84-20.8 12.63"/><path id="path12651" fill="url(#linear-gradient-6)" d="M145.26 71.7c-3.27 7.39-6.6 17.09-10.64 29.76a221.39 221.39 0 0 1 24-28.93 86.92 86.92 0 0 0-3.54-9.24 119.45 119.45 0 0 0-9.79 8.41"/><path id="path12655" fill="#2b74b1" d="M157.95 61.17c-1 .69-1.92 1.39-2.89 2.13a87 87 0 0 1 3.53 9.24c1.44-1.41 2.88-2.78 4.31-4.09a57.23 57.23 0 0 0-5-7.28"/><path id="path12659" fill="#125a9e" d="M161.37 58.89c-1.14.72-2.28 1.48-3.42 2.28a57.52 57.52 0 0 1 5 7.28c1.27-1.15 2.53-2.25 3.8-3.3a50.49 50.49 0 0 0-5.33-6.27"/><path id="path12741" fill="url(#linear-gradient-7)" d="M346.76 47c-15.37 59.28-47.48 106.89-74.39 118.9h-.05c-.49.22-1 .42-1.45.62a1.26 1.26 0 0 1-.18.07l-.41.16a1.07 1.07 0 0 1-.19.08l-.67.24-.28.1-.33.11-.32.11-.29.1-.58.17a1.11 1.11 0 0 0-.24.06l-.39.1a1.2 1.2 0 0 1-.26.07l-.42.11-.51.11a11 11 0 0 0 3.85.68c25.52 0 51.26-45.74 93.84-121.81h-16.73z"/><path id="path12803" fill="url(#linear-gradient-8)" d="M129.08 52.05a.05.05 0 0 0 .06 0l.41-.16a.07.07 0 0 0 .08 0h.11l.44-.16c.34-.1.65-.23 1-.34h.15l.42-.13A.82.82 0 0 1 132 51l.42-.13h.16l1.4-.36h.19a2.68 2.68 0 0 1 .41-.08.71.71 0 0 1 .2-.06c.14 0 .27 0 .41-.08h.1l.85-.16h.17a3.59 3.59 0 0 1 .39-.07h.22a2.91 2.91 0 0 0 .38-.06.4.4 0 0 0 .21 0c.3 0 .61-.06.92-.08-.88-.08-1.79-.14-2.72-.14C107 49.62 67.41 103 49.57 172H53c5.71-10.18 10.84-19.81 15.53-28.86C81 94.25 106.48 60.89 129.08 52"/><path id="path12807" d="M145.26 71.7a119.39 119.39 0 0 1 9.79-8.4 46.25 46.25 0 0 0-2.33-4.51 55.22 55.22 0 0 0-7.46 12.91" class="cls-14"/><path id="path12811" d="M147.62 52.46a24.52 24.52 0 0 1 5.1 6.34c.48-.6 1-1.15 1.48-1.66a28.82 28.82 0 0 0-6.95-4.86l.31.15h.06" class="cls-14"/><path id="path12831" fill="url(#linear-gradient-9)" d="M68.53 143.18c26.21-50.51 38.63-82.47 60.55-91.12-22.6 8.84-48.08 42.2-60.55 91.12"/><path id="path12843" fill="#127bca" d="M154.2 57.13c-.51.52-1 1.07-1.48 1.66a46.92 46.92 0 0 1 2.34 4.51c1-.74 1.93-1.44 2.89-2.13a39.36 39.36 0 0 0-3.75-4"/><path id="path12923" fill="url(#linear-gradient-10)" d="M80.43 171.8a3.51 3.51 0 0 1-.47.06h-.56c-.33 0-.65 0-1 .06h-.1c26.53-.74 38.65-14 44.67-33.29 4.57-14.6 8.33-26.91 11.62-37.23-11.11 15.64-22.27 34.28-33.49 55.17-5.41 10.07-13.64 14.27-20.7 15.17"/><path id="path12949" fill="url(#linear-gradient-11)" d="M80.43 171.79c7.06-.9 15.29-5.1 20.7-15.17 11.22-20.88 22.39-39.53 33.49-55.17 4-12.68 7.37-22.38 10.64-29.76-22.13 21.06-44.34 56.08-64.83 100.09"/><path id="path12961" fill="#05a1e6" d="M68.53 143.18c-4.69 9-9.82 18.67-15.53 28.86h10a244.41 244.41 0 0 1 5.53-28.85"/><path id="path12981" fill="url(#linear-gradient-12)" d="M137.55 49.87h-.21a1.73 1.73 0 0 1-.34.13.44.44 0 0 0-.22 0 3.83 3.83 0 0 1-.39.07.26.26 0 0 0-.17 0l-.85.15h-.1a3.35 3.35 0 0 1-.41.08.71.71 0 0 1-.21.06 3.84 3.84 0 0 1-.4.08.38.38 0 0 1-.19 0l-1.4.36h-.16l-.42.13a.58.58 0 0 1-.19.06l-.42.13h-.15c-.32.12-.64.24-1 .34l-.44.15a.93.93 0 0 1-.19.08l-.41.15a.69.69 0 0 1-.14.06c-21.92 8.65-34.34 40.62-60.55 91.12A243.35 243.35 0 0 0 63 172h15.43c.31 0 .64 0 1-.06H80c.15 0 .31 0 .47-.06 20.49-44 42.7-79 64.83-100.09a55.42 55.42 0 0 1 7.46-12.91 24.44 24.44 0 0 0-5.09-6.34h-.06l-.31-.15-.31-.16-.3-.15a2.81 2.81 0 0 1-.35-.15l-.28-.12-.58-.24-.25-.09-.43-.17a1.48 1.48 0 0 0-.23-.08l-.6-.21h-.05c-.23-.08-.46-.13-.7-.2a.29.29 0 0 0-.16 0l-.59-.17h-.14c-.47-.13-1-.23-1.46-.32h-.15l-.63-.1a.17.17 0 0 0-.13 0l-.75-.1h-.13c-.2 0-.39 0-.58-.06-.32 0-.62.06-.92.08"/><path id="path13003" fill="url(#linear-gradient-13)" d="M286.71 79.83c-5 16.15-9.13 29.48-12.68 40.45 13.84-19 27.47-43 40.45-70.64-15.14 4.75-23.22 15.64-27.77 30.19"/><path id="path13093" fill="url(#linear-gradient-14)" d="M274.47 164.9c-.71.36-1.41.7-2.11 1 26.92-12 59-59.62 74.39-118.9h-3.11c-35.32 63.1-46.64 105.33-69.17 117.9"/><path id="path13097" fill="#079ae1" d="M256.9 159.6c5.86-7.15 10.63-19.3 17.14-39.32a196.85 196.85 0 0 1-22.64 26.42v.06a69 69 0 0 0 5.53 12.84"/><path id="path13101" d="M256.9 159.6a24 24 0 0 1-6.45 5.66c-.51.3-1 .58-1.56.84a22.68 22.68 0 0 0 8.21 2.59l1.34.12h.08a3.59 3.59 0 0 1 .65 0h2.19a.53.53 0 0 0 .25 0 2 2 0 0 0 .48 0h.24c.17 0 .35 0 .53-.06h.16c.05 0 .38-.06.56-.08h.17l.63-.1h.1c.42-.08.84-.16 1.26-.27-3.47-1.27-6.38-4.27-8.88-8.54" class="cls-6"/><path id="path13105" d="M207.27 168.85a40.34 40.34 0 0 0 7.62-.74 47.21 47.21 0 0 0 7.1-1.91 25.82 25.82 0 0 0 6.23 2.13 26.49 26.49 0 0 0 5.32.53z" class="cls-24"/><path id="path13109" d="M233.55 168.85c6.22 0 11.15-.74 15.33-2.75a22.69 22.69 0 0 0 8.21 2.59l1.34.12h.08a3.59 3.59 0 0 1 .65 0h-25.61z" class="cls-24"/><path id="path13113" fill="#1d60b5" d="M259.93 168.85h1.44a.52.52 0 0 0 .25 0 2.06 2.06 0 0 0 .49 0h.24c.17 0 .35 0 .52-.06h.16c.06 0 .38-.06.56-.08a.28.28 0 0 0 .17 0l.63-.1h.1c.42-.08.84-.16 1.26-.27a11 11 0 0 0 3.85.68h-9.7z"/><path id="path13117" fill="#175fab" d="M251.37 146.77q-4.16 4-8.3 7.27a90.985 90.985 0 0 1-4.34 3.26 49.25 49.25 0 0 0 3.76 4.06 29.11 29.11 0 0 0 6.4 4.78c.53-.26 1.05-.54 1.56-.84a23.94 23.94 0 0 0 6.46-5.66 69 69 0 0 1-5.53-12.84"/><path id="path13139" fill="url(#linear-gradient-15)" d="M333.78 47H318.1c-.85 0-1.67.07-2.48.12-.38.82-.78 1.65-1.16 2.47-13 27.64-26.61 51.6-40.45 70.64-6.51 20-11.28 32.18-17.14 39.33 2.5 4.27 5.42 7.27 8.88 8.55a1.59 1.59 0 0 1 .27-.06h.25l.43-.11a2.24 2.24 0 0 1 .26-.07l.39-.1a.92.92 0 0 1 .24-.07l.58-.17.29-.1c.11 0 .22-.07.32-.12.12 0 .23-.06.33-.1l.27-.1.68-.24c.06 0 .12-.06.19-.07l.41-.16a.51.51 0 0 1 .18-.06c.47-.2 1-.4 1.45-.62h.05c.7-.31 1.4-.65 2.11-1C297 152.34 308.31 110.11 343.63 47h-9.85z"/><path id="path13231" fill="#7dcbec" d="M138.47 49.79a.24.24 0 0 1 .16 0 1.3 1.3 0 0 1 .41 0h.14l.75.1a.15.15 0 0 1 .13 0l.63.1h.16c.48.1 1 .2 1.45.32h.13l.59.17h.16c.24.06.46.12.69.2h.05l.61.21a1.15 1.15 0 0 0 .23.08l.43.18a.88.88 0 0 1 .25.08l.58.24.28.12a2.5 2.5 0 0 0 .35.15l.31.15.31.16a29 29 0 0 1 6.95 4.86 22.55 22.55 0 0 1 2.44-1.91 27.12 27.12 0 0 0-16.06-5.2c-.71 0-1.41 0-2.13.09"/><path id="path13235" fill="#5ec5ed" d="M154.2 57.13a39.36 39.36 0 0 1 3.75 4c1.15-.8 2.28-1.56 3.42-2.28a36.11 36.11 0 0 0-4.71-4 22 22 0 0 0-2.46 2.24"/><g id="g13243"><path id="path13245" fill="url(#linear-gradient-16)" d="M138.47 49.79c.72-.06 1.42-.09 2.13-.09a27.15 27.15 0 0 1 16.06 5.19c4.93-3.89 10.88-5.25 19.16-5.25h-40.07c.92 0 1.83.06 2.72.14"/></g><g id="g13253"><path id="path13255" fill="url(#linear-gradient-17)" d="M175.82 49.65c-8.27 0-14.23 1.36-19.16 5.25a36.41 36.41 0 0 1 4.7 4 58.4 58.4 0 0 1 20.35-8.51 41.3 41.3 0 0 1 7.62-.73h-13.51z"/></g><path id="path13333" fill="url(#linear-gradient-18)" d="M274 120.29c3.56-11 7.63-24.3 12.69-40.46 4.55-14.56 12.62-25.44 27.75-30.19.4-.81.78-1.65 1.17-2.47-24.68 1.48-36.22 14-42 32.63-10.15 32.46-16.3 53.5-22.22 66.91A197.4 197.4 0 0 0 274 120.29"/></g></svg>