<svg xmlns="http://www.w3.org/2000/svg" id="Layer_1" viewBox="0 0 112 112"><style></style><g id="Elasticsearch_3_"><path fill="#00a9e5" d="M73.1 44H52.2c.1.5.3 1 .4 1.4.7 2.4 1.1 4.9 1.3 7.5.1 1 .1 2.1.1 3.1s0 2.1-.1 3.1c-.2 2.6-.6 5.1-1.3 7.5-.1.5-.3 1-.4 1.4h20.9C79.7 68 85 62.6 85 56s-5.3-12-11.9-12z"/><path fill="#353535" d="M53.9 59.1c.1-1 .1-2.1.1-3.1s0-2.1-.1-3.1c-.2-2.6-.6-5.1-1.3-7.5-.1-.5-.3-1-.4-1.4H19.8c-1.2 3.8-1.8 7.8-1.8 12s.6 8.2 1.8 12h32.3c.1-.5.3-1 .4-1.4.7-2.4 1.2-4.9 1.4-7.5z"/><path fill="#00bfb3" d="M76.7 72h-26c-.8 1.8-1.7 3.5-2.7 5.1-1.5 2.5-3.3 4.7-5.3 6.8-.7.7-1.4 1.3-2.1 2-1.4 1.3-3 2.4-4.6 3.5 6.3 4.2 13.9 6.6 22 6.6 13.9 0 26.1-7.1 33.3-17.8-3.7-3.8-8.9-6.2-14.6-6.2z"/><path fill="#019b8f" d="M48 77.1c1-1.6 1.9-3.3 2.7-5.1H21.3c3.1 7.1 8.2 13.2 14.7 17.4 1.6-1.1 3.1-2.2 4.6-3.5.7-.6 1.4-1.3 2.1-2 1.9-2 3.7-4.3 5.3-6.8z"/><g><path fill="#f9b110" d="M42.6 28.1c-.7-.7-1.4-1.3-2.1-2-1.4-1.3-3-2.4-4.6-3.5-6.3 4.2-11.4 10.3-14.6 17.4h29.3c-.8-1.8-1.7-3.5-2.7-5.1-1.5-2.5-3.3-4.8-5.3-6.8z"/><path fill="#fed10a" d="M58 16c-8.1 0-15.7 2.4-22 6.6 1.6 1.1 3.1 2.2 4.6 3.5.7.6 1.4 1.3 2.1 2 2 2.1 3.8 4.3 5.3 6.8 1 1.6 1.9 3.3 2.7 5.1h26c5.7 0 10.9-2.4 14.6-6.2C84.1 23.1 71.9 16 58 16z"/></g></g></svg>