<svg xmlns="http://www.w3.org/2000/svg" id="Layer_1" data-name="Layer 1" viewBox="0 0 422.7 568"><defs><style>.cls-1{fill:#fba919}.cls-2{fill:#e78724}.cls-3{fill:#fdc168}.cls-4{fill:#fff}.cls-5{fill:#c9c9c9}.cls-6{fill:#463014}</style></defs><path d="M100.65 195.37s5.88 22.66 6.71 30.21-15.1 24.34-15.1 32.73 3.35 23.5 21.82 31.05 21 26.85 21 38.6-6.71 34.4-6.71 34.4-4.19 56.23 18.46 66.3 17.62 10.07 22.66 10.07 42 15.11 63.78 9.23 27.69-12.59 27.69-12.59 21.82 1.68 28.53-17.63 10.91-59.58 8.39-78-5.87-42.8 9.23-51.19 31.05-18.46 28.53-26.85-15.94-20.14-15.94-20.14-3.36-21-.84-26 17.62-17.63 9.23-26.86-23.5-9.23-23.5-9.23l-19.3 1.68s-32.73-29.37-75.53-27.69-69.65 27.69-69.65 27.69-14.26-5-26.85 0-15.13-.04-12.61 14.22z" class="cls-1"/><path d="M177.33 320.32s-16.62 25.41-28.81 43.44c-1.89 2.79 12.19 3 12.19 3l16.62-46.43zm7.91-52.68s-5 12.5-7.75 19.12c-3 7.2-14.34 10.79-14.34 10.79s5.89-6.18 5.89-21.82c0-6.56 8.47-9.17 8.47-9.17l7.73 1.08z" class="cls-2"/><path d="M180.18 274.7s-10.26 12.22-29.32 5.38-21-31.28-21-38.12 36.16 6.84 41.05 9.77 14.17 14.66 9.28 23zm-72-130.55s17.59-3.42 29.32 5.86 15.15 16.62 15.15 16.62l-19.76 15.67s-9.55-4.43-12.48-17.14-.98-18.56-12.22-21.01z" class="cls-2"/><path d="M175 239.41c-7.53-10.75-20-15.41-30-16.22-17-1.33-25.06 4.68-25.06 4.68s27.83 1.18 35.85 11.71c14.93 19.61 36.72 21.2 40.21 16.9-4 .2-8.46-1.79-13.2-6.28-2.95-2.8-5.35-7.37-7.8-10.79zm-47 38s-30.88-10.62-25-21.37 1.2-16.61 1.2-16.61S87 252.33 91.4 266c2.7 8.4 7.23 14.48 32.11 26.14 11.93 22.16 2.46 62.06 3 62.24.94.31 16.75-7.81 15.67-45.13-.33-11.46-1.25-27.11-14.15-31.82zm40.47-114.15c-12.89 6.59-30.63 15.74-30.63 15.74l7 3.49c-.67 1.08-1 1.72-1 1.72l7.17 3.26s17.49 12.67 28.21 20.82c-3.57-11-14.06-28.29-14.06-28.29s-3-7.94 3.38-16.74zm43 268.14c-39.8 0-53.28-20.2-53.28-20.2l6.22 15.15c2.35 6.55 27.43 26.94 47 26.94" class="cls-2"/><path d="M162.63 397.56s3.66 22.38 18.32 22.38c12.46 0 16.13-18.9 16.13-22.81zm-24.4-33.75a161.4 161.4 0 0 0 7.33-31.28c1.76-15.8 1.12-38.91 1.12-38.91s-3.91 15.15-7.33 17.6-9.77 19.06-9.77 19.06-3.4 24.74-5 33.05c4.48.9 8.26-1.74 13.69.49zm-35.41-98s8.31-2.93 10.75-21a81.62 81.62 0 0 0-2.93-33.81s.49 24.92-2.44 29.81-5.37 6.35-8.8 12.71 1.46 10.29 3.42 12.25z" class="cls-2"/><path d="M112.74 148.43l-1.7-1.07c-5.04.16 1.7 1.07 1.7 1.07z" class="cls-3"/><path d="M175.29 157.92s-7.82-1.3-11.73-7.17-15-17.6-32.64-17.73-35.12 4.69-35.12 4.69l15.2 9.65c1.61-.05 4.43 0 9.1.13 19.14.64 22.08 19.56 22.08 19.56l67.44-9.29" class="cls-1"/><path d="M181.81 262.47a26.52 26.52 0 0 1-23.14 6.19c-14-2.93-22.48-9.12-23.14-19.87s2.94-15 2.94-15 15.64 4.89 23.13 11.41 13 16.94 20.2 17.27z" class="cls-4"/><path d="M170.77 259.21a25 25 0 0 1-16.76.67C142.43 256 141.66 244 141.66 244s-7.1 20.84 12.81 24.85c16 3.22 25.42-6 25.42-6l-9.12-3.59z" class="cls-5"/><path d="M176.39 153.5c-.85-17.87 13.8-32.11 18.88-32.72.28 3-.28 14.84 4.79 18.48 1.48-9.65 6.47-20.29 26.21-27.26-4.23 11.21-.57 20.6 1.18 25 13.47-12.28 22.55-10.26 22.55-10.26s-9.36 16.16-5.7 26.76c-27.05-2.12-67.78 2.87-67.91 0zM119 180.73c-6.45-5.35-1.64-10.32-2.15-16.41-.28-3.24-.53-6.29-1.6-8-5.94-9.38-20-12.22-20.09-12.25l-6.58-1.29 4.42-5.07c.56-.66 18.44-17.72 46.1-8.78 19.35 6.24 33.68 27.41 34.21 28.26l-9.7 4.56c-.11-.18-11.44-20.07-28-25.43-13.42-4.33-25.79-.21-31.09 2.49 5.63 2.25 13 6.34 17.43 13.35 2.09 3.31 2.45 7.47 2.79 11.51.45 5.34.87 10.38 4.8 13.65zm-17.2 78.16s8.13-10.08 10.54-29.7c.95-7.73-.74-23-3.42-28.84a117.89 117.89 0 0 1-3.18 28.84s-2.47 26.81-3.94 29.7z" class="cls-6"/><path d="M144.68 170.54s-2.61-11.4-9.83-17.15c-10.19-8.1-22.63-3.79-22.75-3.76l-1.81-5.58c.6-.19 14.82-4.67 27.92 4.54s14.76 17.66 14.9 18.59l-8.44 3.36zm-17.34 81.12s-4.27-6.11-3.5-12.82c.38-3.32 1.92-6.72 4.66-7.93 5.1-2.24 7.36 3.54 7.36 3.54s-7.17 1.77-8.52 17.21z" class="cls-6"/><path d="M174.18 261c.18.33.27.52.27.52s-13.31 10-26.94-.15c-7.3-5.43-6.61-18.86-4.37-24.55a43.88 43.88 0 0 1 14.86 6.43c-5.21-4.65-9.77-8.07-9.76-8.15l-5.92-1.68-11.51-3.95c-.15.88-4.35 20.56 7.77 34 5.37 5.95 30.55 19.26 42.51-3.51l-6.91 1z" class="cls-6"/><path d="M172.94 262.43c7.49 11.4 26.39 4.89 26.07-7.17 0 0-12.63 7-23.79-5.86-6.51-7.49-27.39-28.15-55.7-21.29 19.55 4.3 45.43 22.16 53.42 34.32z" class="cls-6"/><path d="M116.87 294.61c1.8 1 8.16 7.62 8.16 17.47 0 4.94-.49 29.74-2.94 44.89 3.67 2.39 6.24 2.9 9.9 5.33 1.83-17.55 3.15-43 2.53-53.25-.7-11.7-7-19.56-12.78-22.91-1.82-1-3.72-2.08-5.64-3.11-10-5.38-20.25-10.94-20.25-20.44 0-7.43 2.89-9.76 5.95-12.22l.33-.27c2-1.64 4.33-3.5 5.69-6.55 3.71-8.35 4.32-29.61 0-35-2.15-2.69-7.92-11.74-6.26-17.82a8.14 8.14 0 0 1 4.47-5.26 22.38 22.38 0 0 1 10.1-1.94c8.22 0 17.34 2.5 22 4 16.81 5.33 37.1 20.69 42.92 25.28l.28.21 3.72 2.59-2.33-3.89c-.14-.24-14.88-24.48-41.24-33.36-5.13-1.73-15.2-4.63-25.1-4.63-5.89 0-10.9 1-14.85 3.06a17.89 17.89 0 0 0-9.45 11.39c-3.33 12.21 7.51 25.8 7.88 26.23 1.26 2.26 1.8 18.64-1.12 25.2a10.09 10.09 0 0 1-2.84 2.9c-.44.35-.93.72-1.44 1.11-4.12 3.11-10.35 7.81-10.35 18.63 0 14.81 15 22.85 27.08 29.3 1.99 1.07 3.88 2.08 5.58 3.06z" class="cls-6"/><path d="M119 180.73c-6.45-5.35-1.64-10.32-2.15-16.41-.28-3.24-.53-6.29-1.6-8-5.94-9.38-20-12.22-20.09-12.25l-6.58-1.29 4.42-5.07c.56-.66 18.44-17.72 46.1-8.78 19.35 6.24 33.68 27.41 34.21 28.26l-9.7 4.56c-.11-.18-11.44-20.07-28-25.43-13.42-4.33-25.79-.21-31.09 2.49 5.63 2.25 13 6.34 17.43 13.35 2.09 3.31 2.45 7.47 2.79 11.51.45 5.34.87 10.38 4.8 13.65z" class="cls-6"/><path d="M118.83 181.82l-.42-.35c-4.79-4-3.94-7.88-3.11-11.67a18.29 18.29 0 0 0 .61-5.41c-.26-3.12-.51-6.05-1.45-7.54C108.8 147.94 95.14 145.08 95 145l-8.21-1.61 5.44-6.36a45.79 45.79 0 0 1 31-11.71 52.49 52.49 0 0 1 16.15 2.68c20.2 6.51 34.61 28.46 34.74 28.67l.58.93-11.47 5.4-.46-.73c-1.24-2.11-12.12-20.05-27.51-25a38.49 38.49 0 0 0-11.84-1.84 43.15 43.15 0 0 0-16.54 3.36c5.32 2.4 11.77 6.43 15.85 12.86 2.22 3.51 2.58 7.79 2.93 11.93.43 5.15.84 10 4.45 13l1.36 1.13-12.64 4.14z" class="cls-6"/><path d="M144.68 170.54s-2.61-11.4-9.83-17.15c-10.19-8.1-22.63-3.79-22.75-3.76l-1.81-5.58c.6-.19 14.82-4.67 27.92 4.54s14.76 17.66 14.9 18.59l-8.44 3.36z" class="cls-6"/><path d="M144 171.88l-.25-1.12c0-.11-2.58-11.1-9.49-16.6a22.06 22.06 0 0 0-14.1-4.73 25.91 25.91 0 0 0-7.72 1.13l-.93.31-2.42-7.44.93-.3a34.43 34.43 0 0 1 28.79 4.66c13.51 9.49 15.16 18.28 15.3 19.24l.12.77zm-23.84-24.39a24.31 24.31 0 0 1 15.32 5.14c6.13 4.89 9 13.51 9.89 16.6l6.65-2.65c-.6-2.35-3.25-9.39-14.34-17.18a30.91 30.91 0 0 0-18.14-5.61 33.2 33.2 0 0 0-8 .95l1.2 3.71a29.07 29.07 0 0 1 7.4-.97zm60.2 267.09a12.33 12.33 0 0 1-7.88-2.82c-1.56-1.35-6.85-6.2-9.18-12.15-.87-2.23-.68-4 .59-5.29.87-.88 2.68-1.93 6.34-1.93h19.72c2.79 0 4.79.6 5.94 1.78a4 4 0 0 1 .59 4.46 48.75 48.75 0 0 1-8.73 13 9.93 9.93 0 0 1-7.39 3zm3-151.47l-10.43-.67a54.52 54.52 0 0 1 4.39 10.77c1.95 6.87-1.78 16.92-1.78 16.92s13.91-15.74 7.82-27.03zm-13 179c-37.11-2.85-50.17-37.92-50.17-45.22h9.69c0 3.16 9.91 33.15 41.22 35.56z" class="cls-6"/><path d="M159.92 379.28a24.34 24.34 0 0 1 .07-9.65c-2.82-2.12-7.88-2.91-11.68-4.14-3.1-2-19 2-30.52-11.94-14.44-17.47-11.4-27.9-11.4-27.9-3.7 4.11-7.29 2.55-12.94 21.73s2.65 32.56 18.13 46c7.31 6.34 17.65 9 26.54 10-3-3 5.09-3.29 10.65-5.37-.44-4.49.3-8.85 3.65-12.36a18.9 18.9 0 0 1 7.31-4.39c.15-.35.28-.67.42-1a8.58 8.58 0 0 1-.23-.98z" class="cls-4"/><path d="M148.7 397.85c-.32-.94-.57-1.9-.8-2.87s-1.54-4 0-.63a12.66 12.66 0 0 1-.87-2.68c-25.07 0-46.88-17.24-42.67-53.43-3.28-4.36-7.88 8.79-7.88 8.79S84 383.46 116.39 397.58c10.8 4.71 20.35 8.09 22.6 6.72 4.69 1 8.93-2.32 10.51-4.47q-.44-1-.8-2z" class="cls-5"/><path d="M159.47 374a20.13 20.13 0 0 1 2.14-9c.1-.2.22-.4.33-.6-9.65-.08-20.76-1-30.22-4.79-10.4-4.16-23.41-18.39-25.64-35.11 0 0-19.58 15.11-13.83 47.46 5.4 30.37 30.82 40.27 59.81 42 0-.2-3.26-7-2.22-11.11-16.46 1.2-34.87-5.16-43.75-19.78-8.14-13.38-5.85-36.23-2.51-39.58 8.15 25.76 37.49 30.99 55.89 30.51z" class="cls-6"/><path d="M162.51 355.61c-5.22 15.31-15.87 27.7-15.87 27.7s14.66-.67 15.47-3.26c.6-1.91 13.23-31.49 18.08-66.14-4.56 7.49-17.23 40.39-17.68 41.7z" class="cls-6"/><path d="M245.54 320.32s16.62 25.41 28.81 43.44c1.89 2.79-12.19 3-12.19 3l-16.62-46.43zm-7.91-52.68s5 12.5 7.75 19.12c3 7.2 14.34 10.79 14.34 10.79s-5.89-6.18-5.89-21.82c0-6.56-8.47-9.17-8.47-9.17l-7.73 1.08z" class="cls-2"/><path d="M242.69 274.7S253 286.92 272 280.08s21-31.28 21-38.08-36.16 6.84-41.05 9.77-14.17 14.66-9.29 23zm72-130.55s-17.59-3.42-29.32 5.86-15.15 16.62-15.15 16.62L290 182.3s9.56-4.43 12.49-17.14 1-18.57 12.22-21z" class="cls-2"/><path d="M247.82 239.41c7.57-10.75 20.05-15.44 30-16.22 17-1.33 25.06 4.68 25.06 4.68s-27.83 1.18-35.86 11.71c-14.93 19.61-36.71 21.2-40.2 16.9 4 .2 8.46-1.79 13.2-6.28 2.98-2.8 5.4-7.37 7.8-10.79zm47 38s30.88-10.62 25-21.37-1.2-16.61-1.2-16.61 17.25 12.87 12.85 26.56c-2.7 8.4-7.23 14.48-32.11 26.14-11.93 22.16-2.46 62.05-3 62.24-.95.31-16.75-7.81-15.67-45.13.31-11.45 1.21-27.09 14.12-31.81zm-40.48-114.13C267.28 169.85 285 179 285 179l-7 3.49q.53.84 1 1.72l-7.17 3.26s-17.49 12.67-28.21 20.82c3.57-11 14.06-28.29 14.06-28.29s3.01-7.93-3.34-16.72zm-43 268.14c39.79 0 53.27-20.2 53.27-20.2l-6.22 15.15c-2.35 6.55-27.43 26.94-47 26.94" class="cls-2"/><path d="M260.24 397.56s-3.67 22.38-18.32 22.38c-12.46 0-16.13-18.9-16.13-22.81zm24.4-33.75a161.63 161.63 0 0 1-7.33-31.28c-1.76-15.8-1.11-38.91-1.11-38.91s3.91 15.15 7.33 17.6 9.77 19.06 9.77 19.06 3.4 24.74 5 33.05c-4.48.9-8.25-1.74-13.68.49zm35.41-98s-8.31-2.93-10.75-21a81.63 81.63 0 0 1 2.93-33.81s-.49 24.92 2.44 29.81 5.38 6.35 8.8 12.71-1.47 10.29-3.42 12.25z" class="cls-2"/><path d="M310.13 148.43l1.7-1.07c5 .16-1.7 1.07-1.7 1.07z" class="cls-3"/><path d="M247.58 157.92s7.82-1.3 11.73-7.17 15-17.6 32.65-17.73 35.12 4.69 35.12 4.69l-15.25 9.64c-1.61-.05-4.43 0-9.1.13-19.13.64-22.08 19.56-22.08 19.56l-67.44-9.29" class="cls-1"/><path d="M241.06 262.47a26.52 26.52 0 0 0 23.13 6.19c14-2.93 22.48-9.12 23.14-19.87s-2.93-15-2.93-15-15.64 4.89-23.13 11.41-13.04 16.94-20.21 17.27z" class="cls-4"/><path d="M252.1 259.21a25 25 0 0 0 16.76.67C280.44 256 281.21 244 281.21 244s7.1 20.84-12.81 24.85c-16 3.22-25.42-6-25.42-6l9.12-3.59z" class="cls-5"/><path d="M303.82 180.73c6.46-5.35 1.65-10.32 2.16-16.41.27-3.24.53-6.29 1.6-8 5.94-9.38 20-12.22 20.1-12.25l6.58-1.29-4.35-5.09c-.56-.66-18.44-17.72-46.11-8.78-19.35 6.24-33.67 27.4-34.21 28.26l9.7 4.56c.12-.18 11.44-20.07 28-25.43 13.42-4.33 25.79-.21 31.08 2.49-5.63 2.25-13 6.34-17.43 13.35-2.09 3.31-2.44 7.47-2.78 11.51-.45 5.34-.87 10.38-4.8 13.65l10.44 3.42zm17.24 78.17s-8.13-10.08-10.54-29.7c-.95-7.73.73-23 3.42-28.84-.49 14.42 3.18 28.84 3.18 28.84s2.47 26.8 3.94 29.69z" class="cls-6"/><path d="M278.19 170.54s2.61-11.4 9.83-17.15c10.19-8.1 22.63-3.79 22.74-3.76l1.81-5.58c-.6-.19-14.82-4.67-27.93 4.54s-14.76 17.66-14.9 18.59zm17.34 81.12s4.27-6.11 3.49-12.82c-.38-3.32-1.91-6.72-4.66-7.93-5.1-2.24-7.36 3.54-7.36 3.54s7.18 1.77 8.52 17.21z" class="cls-6"/><path d="M248.68 261c-.18.33-.27.52-.27.52s13.3 10 26.94-.15c7.3-5.43 6.61-18.86 4.37-24.55a43.93 43.93 0 0 0-14.87 6.47c5.21-4.65 9.77-8.07 9.76-8.15l5.93-1.68 11.46-3.98c.15.88 4.35 20.56-7.78 34-5.37 5.95-30.55 19.26-42.5-3.51l6.92 1z" class="cls-6"/><path d="M249.93 262.43c-7.49 11.4-26.39 4.89-26.06-7.17 0 0 12.63 7 23.79-5.86 6.51-7.49 27.39-28.15 55.7-21.29-19.55 4.3-45.43 22.16-53.43 34.32z" class="cls-6"/><path d="M306 294.61c-1.8 1-8.16 7.62-8.16 17.47 0 4.94.49 29.74 2.93 44.89-3.68 2.39-6.24 2.9-9.9 5.33-1.83-17.55-3.15-43-2.53-53.25.7-11.7 7-19.56 12.77-22.91 1.82-1 3.72-2.08 5.64-3.11 10-5.38 20.25-10.94 20.25-20.44 0-7.43-2.89-9.76-5.95-12.22l-.33-.27c-2-1.64-4.33-3.5-5.69-6.55-3.71-8.35-4.32-29.61 0-35 2.15-2.69 7.93-11.74 6.27-17.82a8.16 8.16 0 0 0-4.48-5.26 22.37 22.37 0 0 0-10.1-1.94c-8.22 0-17.34 2.5-22 4-16.81 5.33-37.1 20.69-42.92 25.28l-.28.21-3.72 2.59 2.33-3.89c.15-.24 14.88-24.48 41.24-33.36 5.13-1.73 15.2-4.63 25.1-4.63 5.89 0 10.89 1 14.85 3.06a17.89 17.89 0 0 1 9.45 11.39c3.33 12.21-7.51 25.8-7.88 26.23-1.26 2.26-1.8 18.64 1.12 25.2a10.09 10.09 0 0 0 2.9 2.92c.44.35.92.72 1.44 1.11 4.12 3.11 10.35 7.81 10.35 18.63 0 14.81-15 22.85-27.08 29.3-2 1.07-3.87 2.07-5.58 3.06z" class="cls-6"/><path d="M288.09 179c-2.39-4-8.5-11.85-22.57-18.72-15.71-7.66-33.89-11.54-54-11.55h-.08c-20.16 0-38.34 3.9-54 11.55-14.08 6.86-20.18 14.67-22.57 18.72l-1 1.36 11.94 2.64.38-.48.2-.44c.19-.8 1.8-5.1 15.24-11.65 14.37-7 31.12-10.56 49.8-10.57s35.43 3.56 49.79 10.57c13.44 6.55 15.06 10.85 15.24 11.65l.2.44.38.48 12.06-2.68-1-1.36z" class="cls-6"/><path d="M303.82 180.73c6.46-5.35 1.65-10.32 2.16-16.41.27-3.24.53-6.29 1.6-8 5.94-9.38 20-12.22 20.1-12.25l6.58-1.29-4.35-5.09c-.56-.66-18.44-17.72-46.11-8.78-19.35 6.24-33.67 27.4-34.21 28.26l9.7 4.56c.12-.18 11.44-20.07 28-25.43 13.42-4.33 25.79-.21 31.08 2.49-5.63 2.25-13 6.34-17.43 13.35-2.09 3.31-2.44 7.47-2.78 11.51-.45 5.34-.87 10.38-4.8 13.65l10.44 3.42z" class="cls-6"/><path d="M291.4 177.69l1.36-1.13c3.62-3 4-7.84 4.46-13 .35-4.14.71-8.43 2.93-11.93 4.08-6.44 10.53-10.47 15.85-12.86a43.21 43.21 0 0 0-16.54-3.36 38.44 38.44 0 0 0-11.83 1.84c-15.4 5-26.28 22.91-27.51 25l-.46.73-11.48-5.4.58-.93c.13-.22 14.54-22.16 34.74-28.67a52.49 52.49 0 0 1 16.13-2.63 45.79 45.79 0 0 1 31 11.71l5.45 6.36-8.21 1.61c-.14 0-13.8 2.89-19.46 11.82-.94 1.48-1.18 4.42-1.45 7.54a18.28 18.28 0 0 0 .61 5.41c.82 3.79 1.67 7.7-3.12 11.67l-.42.35-12.63-4.14z" class="cls-6"/><path d="M278.19 170.54s2.61-11.4 9.83-17.15c10.19-8.1 22.63-3.79 22.74-3.76l1.81-5.58c-.6-.19-14.82-4.67-27.93 4.54s-14.76 17.66-14.9 18.59z" class="cls-6"/><path d="M268.67 167.8l.11-.77c.14-1 1.79-9.75 15.3-19.25a34.45 34.45 0 0 1 28.79-4.66l.93.3-2.42 7.44-.93-.31a26 26 0 0 0-7.72-1.13 22 22 0 0 0-14.1 4.73c-6.91 5.49-9.46 16.49-9.49 16.6l-.25 1.12zm41.46-19.37l1.2-3.71a33.14 33.14 0 0 0-8-.95 30.91 30.91 0 0 0-18.13 5.61c-11.09 7.79-13.74 14.84-14.34 17.18l6.65 2.65c.87-3.09 3.75-11.72 9.89-16.6a24.3 24.3 0 0 1 15.32-5.14 29.12 29.12 0 0 1 7.4.95zm-75 263.15a48.89 48.89 0 0 1-8.73-13 4 4 0 0 1 .6-4.46c1.15-1.17 3.15-1.78 5.93-1.78h19.72c3.66 0 5.47 1 6.34 1.93 1.26 1.28 1.46 3.06.59 5.29-2.33 6-7.62 10.81-9.18 12.15a12.34 12.34 0 0 1-7.88 2.82 9.93 9.93 0 0 1-7.39-3zm4.36-148.48l10.42-.67a54.66 54.66 0 0 0-4.39 10.77c-1.95 6.87 1.78 16.92 1.78 16.92s-13.88-15.74-7.79-27.02z" class="cls-6"/><path d="M211.44 225.88c-6.64 0-15.31-.18-21.81-4.85 0 0 8.51 14.92 21.8 14.92 13.29 0 21.8-14.92 21.8-14.92-6.49 4.67-15.16 4.85-21.79 4.85z" class="cls-2"/><path d="M229.73 225.81a32.9 32.9 0 0 1-36.59 0s9.71 11.85 18.25 11.94h.1c8.51-.1 18.24-11.94 18.24-11.94zm22.79 216.3l-.74-9.66C283.08 430 292.94 400 293 396.88h9.69c-.01 7.31-13.07 42.37-50.17 45.22z" class="cls-6"/><path d="M262.95 379.28a24.29 24.29 0 0 0-.07-9.65c2.82-2.12 7.88-2.91 11.68-4.14 3.1-2 19 2 30.52-11.94 14.44-17.47 11.4-27.9 11.4-27.9 3.71 4.11 7.29 2.55 12.94 21.73s-2.66 32.56-18.14 46c-7.31 6.34-17.65 9-26.54 10 3-3-5.09-3.29-10.65-5.37.44-4.49-.3-8.85-3.65-12.36a18.89 18.89 0 0 0-7.31-4.39c-.15-.35-.28-.67-.42-1a8.72 8.72 0 0 0 .23-.94z" class="cls-4"/><path d="M274.16 397.85c.33-.94.56-1.9.8-2.87s1.54-4 0-.63a12.66 12.66 0 0 0 .87-2.68c25.07 0 46.88-17.24 42.66-53.43 3.28-4.36 7.88 8.79 7.88 8.79s12.55 36.44-19.86 50.57c-10.8 4.71-20.34 8.09-22.6 6.72-4.7 1-8.93-2.32-10.51-4.47.3-.66.57-1.32.8-2z" class="cls-5"/><path d="M263.4 374a20.14 20.14 0 0 0-2.13-9c-.1-.2-.22-.4-.33-.6 9.65-.08 20.76-1 30.22-4.79 10.4-4.16 23.41-18.39 25.64-35.11 0 0 19.58 15.11 13.83 47.46-5.41 30.37-30.82 40.27-59.81 42 0-.2 3.26-7 2.23-11.11 16.46 1.2 34.86-5.16 43.75-19.78 8.13-13.38 5.85-36.23 2.51-39.58-8.15 25.73-37.5 31-55.9 30.51z" class="cls-6"/><path d="M275.1 381.65c-3.46-3.74-9.83-8.21-24.51-8.21h-78.31c-14.68 0-21 4.46-24.51 8.21-5 5.45-5.84 13-2.35 22.5 9.28 25.22 22.32 50.84 66 50.87h.1c43.64 0 56.68-25.66 66-50.87 3.49-9.47 2.7-17.05-2.35-22.5zm-6.79 20.73C263.89 415 252 445.7 211.43 445.75s-52.45-30.7-56.87-43.37c-2.45-7-2.26-12.23.57-15.45 1.93-2.21 6.38-4.84 16.51-4.84h79.58c10.13 0 14.57 2.63 16.51 4.84 2.83 3.23 3 8.43.57 15.45z" class="cls-6"/><path d="M260.36 355.61c5.22 15.31 15.87 27.7 15.87 27.7s-14.66-.67-15.47-3.26c-.6-1.91-13.23-31.49-18.08-66.14 4.56 7.49 17.23 40.39 17.68 41.7z" class="cls-6"/></svg>