<svg xmlns="http://www.w3.org/2000/svg" id="Layer_1" data-name="Layer 1" viewBox="0 0 524 444"><defs/><path fill="#fff" d="M22 72h480v300H22z"/><path d="M153 91.82c14.14-9.48 30.8-15.89 48-15.81 16.07-.07 32.55 4.54 45 14.93a75.81 75.81 0 0 1 16 18.6c7.9-12.77 19.44-23.62 33.67-28.85 17.34-6.51 36.94-6.06 54.25.32 15.12 5.52 28.34 15.14 40.33 25.72C399.64 115 408.32 124.07 418 132c5.09 4.13 10.56 8 16.82 10.14a23.45 23.45 0 0 0 24.11-6.25c5.51-6 5.17-16.37-.9-21.85-3.86-3.33-10.46-2.66-13.19 1.78-2.39 3.52-1.05 7.91.82 11.32-5-3.63-10-8.69-9.93-15.29-1-7.63 4.63-14.36 11.41-17 13.23-5.29 29.82-.73 38.17 10.92 8 10.87 8.67 25.16 7.27 38.11a45.6 45.6 0 0 1-18.77 30.9C459.47 185 441.32 188.18 424 188a140.13 140.13 0 0 1-48.41-10.4c-25.72-10.34-49.79-24.63-76.35-32.89a91.57 91.57 0 0 0-27.6-5.84c0 55.4-.1 110.81 0 166.22-.07 18.46.17 36.94-.11 55.39-.14-2.15-.27-4.3-.32-6.44q.24-107.67 0-215.33c-7.1.11-14.21-.24-21.29.24a94 94 0 0 0-25.32 5.77c-27 8.4-51.44 23.05-77.65 33.41-22.13 8.61-46.65 12.61-70.14 7.83-13.14-2.66-26.22-8.47-35.09-18.82-7.59-8.8-11.23-20.58-10.87-32.12-.42-10.89 2-22.46 9.17-30.94C46.8 96 57.59 91.92 68 92.82c6.67.31 13.43 3.22 17.55 8.59 3.24 4.25 3.44 10.07 2 15-1.73 4.47-5.3 8-9.18 10.64 2-3.34 3.18-7.75.84-11.24-2.88-4.65-10-5.12-13.72-1.3A16.1 16.1 0 0 0 63 132.88c3.36 6.1 10.31 9.58 17 10.29 10.18.88 19-5.43 26.48-11.55 15.47-13.31 29.39-28.54 46.52-39.8z" class="cls-2"/><path fill="#bab4b1" d="M250 138.91c7.08-.48 14.19-.13 21.29-.24V354c.05 2.14.18 4.29.32 6.44 0 1.31-1 2.3-1.69 3.26l-.15.19c-3.33 5.46-11.63 5.57-16.08 1.5-3-2.9-3.74-7.38-3.68-11.38 0-49 .58-98 .17-147q-.24-34.01-.18-68.1z"/><path d="M269.73 363.89l.15-.19z" class="cls-2"/></svg>