<svg xmlns="http://www.w3.org/2000/svg" id="Layer_1" data-name="Layer 1" viewBox="0 0 320 441.77"><defs><style>.cls-1{fill:#d33833}.cls-2{fill:#ef3d3a}.cls-3{fill:#231f20}.cls-4{fill:#f0d6b7}.cls-5{fill:#335061}.cls-7{fill:#dcd9d8}.cls-8{fill:#f7e4cd}.cls-9{fill:#49728b}.cls-10{fill:#fff}.cls-11{fill:none;stroke:#d33833;stroke-width:2.5px}.cls-12{fill:#81b0c4}</style></defs><path d="M269.15 215.3c0 61.79-49 111.87-109.37 111.87S50.4 277.09 50.4 215.3s49-111.88 109.37-111.88 109.38 50.1 109.38 111.88" class="cls-1"/><path d="M54.86 243s-7.92-116.67 99.58-120l-7.5-12.5-58.33 19.6-16.67 19.16-14.58 27.92-8.36 32.5 2.5 21.67" class="cls-2"/><path d="M84.86 139a110.3 110.3 0 0 0 0 153.47 104.26 104.26 0 0 0 149.82 0 110.3 110.3 0 0 0 0-153.47 104.26 104.26 0 0 0-149.82 0zM80 297.2a117.08 117.08 0 0 1 0-163 111 111 0 0 1 159.54 0 117.08 117.08 0 0 1 0 163 111 111 0 0 1-159.54 0" class="cls-3"/><path d="M205.81 215.92l-16.67 2.5-22.5 2.5-14.58.42-14.17-.42-10.83-3.33-9.58-10.42-7.48-21.25-1.67-4.58-10-3.33-5.83-9.58-4.17-13.75 4.58-12.08 10.83-3.75 8.75 4.17 4.17 9.17 5-.83 1.67-2.08-1.67-9.58-.42-12.08 2.5-16.67-.1-9.52 7.6-12.15 13.33-9.58 23.33-10 25.83 3.75 22.5 16.25 10.42 16.67 6.67 12.08 1.67 30-5 25.83-9.17 22.92-8.75 12.08" class="cls-4"/><path d="M191.65 288l-59.58 2.5v10l5 35-2.5 2.92-41.67-14.16-2.92-5-4.17-47.08-9.58-28.33-2.08-6.67 33.33-22.92 10.42-4.17 9.17 11.25 7.92 7.08 9.17 2.92 4.17 1.25 5 21.67 3.75 4.58 9.58-3.33-6.66 12.91 36.25 17.08-4.58 2.5" class="cls-5"/><path fill="#6d6b6d" d="M92.9 142.59l10.83-3.75 8.75 4.17 4.17 9.17 5-.83 1.25-5-2.5-9.58 2.5-22.92-2.08-12.5 7.5-8.75 16.25-12.92-4.57-6.26-22.94 11.25-9.58 7.5-5.42 11.67-8.33 11.25-2.5 13.33 1.67 14.17"/><path d="M110 103.42s6.23-15.42 31.23-22.91 1.25-5.42 1.25-5.42l-27.09 10.42L105 95.92l-4.58 8.33 9.58-.83m-12.5 36.25s-8.75-29.17 24.58-33.33l-1.25-5-22.93 5.42-6.67 21.67 1.67 14.17 4.58-2.92" class="cls-7"/><path d="M110.81 178.42l5.46-5.29a3.51 3.51 0 0 1 2.88 3.2c.42 2.92 1.67 29.17 19.58 43.33 1.64 1.29-13.33-2.09-13.33-2.09l-13.33-20.83m75.42-26.25s1-12.63 4.37-11.66a4.68 4.68 0 0 1 3.4 4.37s-8.26 5.34-7.77 7.29M222.06 124.26s-6.87 1.45-7.5 7.5 7.5 1.25 8.75.83m-51.67-7.92s-9.17 1.25-9.17 7.08 10.42 5.42 13.33 2.92M115 151.76s-15.83-9.58-17.5-.42-5.42 15.83 2.5 25.42l-5.42-1.67-5-12.92-1.67-12.5 9.58-10 10.83.83 6.25 5 .42 6.25m7.5-26.25s7.08-36.67 42.92-43.75c29.5-5.83 45 1.25 50.83 7.92 0 0-26.25-31.25-51.25-21.67s-43.33 27.08-42.92 38.33c.71 19.16.42 19.17.42 19.17m96.67-31.67s-12.08-.42-12.5 10.42a8.28 8.28 0 0 0 .83 3.33s9.59-10.83 15.42-5" class="cls-8"/><path d="M166.24 108.72s-2.08-16.63-16.26-7c-9.17 6.25-8.33 15-6.67 16.67s1.21 5 2.48 2.72.85-9.8 5.43-11.89 12.1-4.41 15-.54" class="cls-8"/><path d="M127.06 221.34l-39.16 17.5s16.25 64.58 7.92 84.58L90 321.34l-.42-24.58-10.85-46.67-4.58-12.92L115 209.68l12.08 11.66m4 35.72l5.56 6.78v25H130s-.83-17.5-.83-19.58.83-9.58.83-9.58m1.25 32.92l-18.75.83 5.42 3.75 13.33 2.08" class="cls-9"/><path d="M195.4 288.42l15.42-.42 3.75 38.33-15.83 2.08-3.33-40" class="cls-5"/><path d="M199.56 288.42l23.33-1.25s9.58-24.17 9.58-25.42 8.33-35 8.33-35l-18.75-19.58-3.75-3.33-10 10v38.75l-8.75 35.83" class="cls-5"/><path d="M210 285.51l-14.58 2.92 2.08 11.67c5.42 2.5 14.58-4.17 14.58-4.17m-1.67-83.33l29.17 21.67.83-10-22.08-20.42-7.92 8.75" class="cls-9"/><path d="M145.69 370.51l-8.63-35-4.29-25.83-.71-19.17 39-2.08h24.34l-2.21 43.75 3.75 33.75-.42 6.25-31.67 2.5-19.17-4.17" class="cls-10"/><path d="M190 288s-2.08 43.33 4.17 74.17a79.59 79.59 0 0 1-30.83 10l35-1.25 4.17-2.5-5-68.33-1.25-14.59" class="cls-7"/><path d="M215.27 323l16.25-4.58 30.83-1.67 4.58-14.17-8.32-24.58-9.61-1.24-13.33 4.17-12.79 6.25-6.79-1.25-5.28 2.07" class="cls-10"/><path d="M215 314.67s10.83-5 12.5-4.58l-4.58-22.92 5.42-2.08s3.75 21.67 3.75 24.17c0 0 23.33 1.25 25.42 1.25 0 0 5-9.58 3.75-19.58l4.58 13.33.42 7.5-6.67 10-7.5 1.67-12.5-.42-4.17-5.42-14.58 2.08-4.58 1.67" class="cls-7"/><path d="M198.6 285.1l-9.17-23.33-9.58-13.77s2.08-5.83 5-5.83h9.58l9.17 3.33-.83 15.42-4.17 24.18" class="cls-10"/><path d="M200.4 277.17s-11.67-22.5-11.67-25.83c0 0 2.08-5 5-3.75s9.17 4.58 9.17 4.58v-7.92l-14.17-2.92-9.58 1.25 16.25 38.33 3.33.42" class="cls-7"/><path d="M149.44 222.18l-11.54-1.26-10.83-3.33v3.75l5.29 5.84 16.67 7.5" class="cls-10"/><path d="M130.81 223.43s12.92 5.42 17.08 4.17l.42 5-11.67-2.49-7.08-5 1.25-1.67" class="cls-7"/><path d="M215.23 243.6a79.22 79.22 0 0 1-19.05-2.6c.38-2.29-.33-4.54.24-6.19 1.56-1.12 4.17-1.1 6.53-1.37a11.36 11.36 0 0 0-7.25-.82c-.05-1.59-.77-2.58-1.2-3.82 4-1.42 13.36-10.72 18.64-7.64 2.51 1.46 3.58 9.83 3.78 13.9.16 3.38-.31 6.78-1.68 8.57" class="cls-1"/><path d="M215.23 243.6a79.22 79.22 0 0 1-19.05-2.6c.38-2.29-.33-4.54.24-6.19 1.56-1.12 4.17-1.1 6.53-1.37a11.36 11.36 0 0 0-7.25-.82c-.05-1.59-.77-2.58-1.2-3.82 4-1.42 13.36-10.72 18.64-7.64 2.51 1.46 3.58 9.83 3.78 13.9.16 3.38-.31 6.78-1.68 8.57z" class="cls-11"/><path d="M181.42 232c0 .54 0 1.07-.06 1.61-2.21 1.45-5.77 1.43-8.19 2.65a21.27 21.27 0 0 1 8.82 2.23l-.16 4c-4 2.77-7.74 6.9-12.51 9.49-2.25 1.23-10.16 4.39-12.55 3.83-1.36-.31-1.48-2-2-3.58-1.15-3.4-3.81-8.8-4-13.91-.3-6.46-.95-17.28 6-15.95a62.15 62.15 0 0 1 16.49 6c2.66 1.45 4.19 3.25 8.22 3.56" class="cls-1"/><path d="M181.42 232c0 .54 0 1.07-.06 1.61-2.21 1.45-5.77 1.43-8.19 2.65a21.27 21.27 0 0 1 8.82 2.23l-.16 4c-4 2.77-7.74 6.9-12.51 9.49-2.25 1.23-10.16 4.39-12.55 3.83-1.36-.31-1.48-2-2-3.58-1.15-3.4-3.81-8.8-4-13.91-.3-6.46-.95-17.28 6-15.95a62.15 62.15 0 0 1 16.49 6c2.66 1.45 4.19 3.25 8.22 3.56z" class="cls-11"/><path d="M185.44 239.74c-.62-3.52-1.33-4.52-1.05-7.59 9.38-6.26 11.14 10.74 1.05 7.59" class="cls-1"/><path d="M185.44 239.74c-.62-3.52-1.33-4.52-1.05-7.59 9.38-6.26 11.14 10.74 1.05 7.59z" class="cls-11"/><path d="M199 242.6s-2.92-4.17-.83-5.42 4.17 0 5.42-2.08 0-3.33.42-5.83 2.5-2.92 4.58-3.33 7.92-1.25 8.75.83l-2.5-7.5-5-1.67-15.84 9.16-.83 4.58v9.17m-37.92 15.83q-.75-9.75-1.62-19.49c-.88-9.7 2.33-8 10.74-8 1.28 0 7.91 1.53 8.38 2.5 2.27 4.64-3.8 3.61 2.62 7.11 5.42 3 15-1.79 12.8-8.36-1.23-1.46-6.38-.46-8.23-1.41l-9.76-5.06c-4.14-2.15-13.71-5.28-18.13-2.28-11.19 7.61.71 26.62 4.7 34.56" class="cls-2"/><path d="M166.24 108.72c-11.36-2.65-17 4.75-20.44 12.42-3.07-.74-1.85-4.92-1.07-7.06 2-5.59 10.22-13 16.92-12 2.88.43 6.78 3.07 4.6 6.65m55.33 12.93h.54c2.57 5.33 4.79 11 8 15.69-2.17 5.05-16.42 9.52-16.2.45 3.08-1.35 8.4-.28 11.14-2-1.58-4.34-3.86-8-3.5-14.16m-49.52.14c2.43 4.46 3.23 9.15 6.69 12.53 1.56 1.52 4.59 3.37 3.09 7.59-.35 1-2.92 3.22-4.4 3.65-5.41 1.6-18 .33-13.75-6.42 4.47.21 10.49 2.91 13.84-.34-2.57-4.11-7.15-12.23-5.46-17m47.49 45.37c-8.15 5.23-17.23 10.93-30.58 9.6a9.05 9.05 0 0 1-1.17-11.64c1.44 2.48.54 7 4.56 7.73 7.57 1.3 16.39-4.63 21.84-6.71 3.38-5.7-.29-7.79-3.33-11.46-6.23-7.51-14.59-16.82-14.29-28.07 2.52-1.83 2.74 2.79 3.1 3.63 3.25 7.61 11.44 17.35 17.42 23.87 1.47 1.61 3.88 3.14 4.15 4.21.77 3.09-2 6.78-1.69 8.84m-107.41-5.51c-2.55-1.46-3.16-7.88-6.16-8.06-4.28-.26-3.5 8.33-3.49 13.35-3-2.68-3.47-10.92-1.3-15.15-2.47-1.21-3.57 1.34-4.94 2.24 1.76-12.79 18.71-5.93 15.89 7.63m112.6 10.83c-3.79 7.22-9.16 15.17-20.29 15.4-.23-2.33-.4-5.88 0-7.28 8.51-.82 13.76-5.15 20.27-8.12m-53.32 4.68c7.1 3.73 20.14 4.13 29.79 3.85a33.74 33.74 0 0 1 .53 7.3c-12.4.62-27.06-2.45-30.32-11.15m-1.35 7c4.91 12.32 21.78 10.9 36 10.57a7.61 7.61 0 0 1-3.67 4.17c-4.56 1.85-17.13 3.26-23.46-.1-4-2.13-6.59-7-8.79-9.78-1.06-1.37-6.35-4.85-.08-4.86" class="cls-3"/><path d="M218.95 252.1c-5.76 9.87-11.27 20-18.1 28.7 2.87-8.42 4.09-22.52 4.52-33.27 6-2.8 11.13.63 13.58 4.57" class="cls-12"/><path d="M249.94 287.56c-6.45 1.29-11 7.56-17.27 7.16 3.46-4.87 9.52-6.93 17.27-7.16m2.85 10.09c-5.26.55-11.43 1.41-16.76 1 2.52-3.85 12.25-2.52 16.76-1m1.82 8.7c-5.91.13-13.25 0-18.87-.46 3.32-3.57 15-1.32 18.87.46" class="cls-3"/><path d="M207.83 330.16c.85 7.42 3.79 14.94 3.42 23.06-3.27 1.1-5.14 2.07-9.52 2.06-.31-6.9-1.23-17.46-1-24 2.15.14 5.33-1.54 7.05-1.08" class="cls-7"/><path d="M198.31 220.82c-3 1.94-5.49 4.35-8.34 6.42-6.32.31-9.76-.44-14.41-4.07.08-.29.54-.16.56-.52 6.76 3 15.36-1.23 22.19-1.84" class="cls-4"/><path d="M162.81 266.92c1.86-8.05 9.14-12.22 15.75-16.65 6.82 8.66 11 19.8 15.54 30.54-10.8-3.26-21.83-8.54-31.29-13.89" class="cls-12"/><path d="M200.77 331.24c-.28 6.58.65 17.14 1 24 4.38 0 6.25-1 9.52-2.06.37-8.12-2.57-15.64-3.42-23.06-1.77-.42-4.94 1.26-7.1 1.12zm-68.14-37.44c2.89 26.53 7.07 48.83 14.73 72.32 17 5.17 37.53 5.62 52.56 1-2.76-13.26-1.55-29.4-3.17-43.55-1.21-10.63-.6-21.33-2.26-32.18-18.22-3.79-44-.89-61.86 2.46zm66.17-2.29c-.15 11.39.51 22.63 1.38 34 4.38-.66 7.34-1.1 11.41-2-1.32-11-1.16-23.34-3.85-33.05-3.1.08-5.84.01-8.94 1.05zm22.2-1.84c-2.08-.48-4.49 0-6.48 0 .93 9.29 3.2 19.54 4 29.29 3.12.1 4.79-1.37 7.36-1.87.14-8.56-.75-20.35-4.87-27.43zm33.6 30.7c6.51-1.58 10.6-9.55 8.78-17.73-1.22-5.5-3.4-15.86-5.72-19.37-1.72-2.6-6.38-6-10.11-3.62-6.06 3.88-16.73 5-21.15 9.7 2.21 7.38 2.9 17.51 3.82 26.85 7.57.47 16.88-2.08 23.17.63-4.39 1.42-10.1 1.43-13.89 3.51 3.1 1.5 10.37 1.2 15.1 0zm-60.5-39.57c-4.57-10.75-8.72-21.88-15.54-30.54-6.61 4.43-13.89 8.6-15.75 16.65 9.46 5.36 20.49 10.65 31.29 13.9zm11.26-33.28c-.43 10.75-1.66 24.85-4.52 33.27 6.83-8.7 12.35-18.83 18.1-28.7-2.45-3.93-7.58-7.37-13.58-4.56zM192.59 243c-2.59-.28-4.79 3-8.15 1.57-.77.85-1.47 1.78-2.26 2.61 7.43 9 10.81 21.67 16.56 32.2 3.08-10.12 2.73-21.2 3.4-32.24-4.23.27-6.58-3.83-9.55-4.14zm-8.21-10.84c-.28 3.07.44 4.07 1.05 7.59 10.09 3.15 8.33-13.85-1.05-7.6zm-11.19-3.67a62.18 62.18 0 0 0-16.49-6c-7-1.33-6.31 9.49-6 15.95.23 5.11 2.89 10.52 4 13.91.54 1.59.66 3.27 2 3.58 2.4.56 10.3-2.6 12.56-3.83 4.76-2.6 8.46-6.72 12.51-9.49l.16-4a21.28 21.28 0 0 0-8.82-2.23c2.42-1.22 6-1.2 8.19-2.65 0-.54 0-1.08.06-1.61-3.97-.39-5.51-2.19-8.16-3.64zm-41.52-7.54c-3.61 3.66 10.12 8.65 14.49 8.92 0-2.32 1.32-4.5 1.05-6.16-5.19-.91-12-.31-15.54-2.76zm44.44 1.72c0 .36-.48.23-.56.52 4.64 3.63 8.09 4.38 14.41 4.07 2.85-2.07 5.38-4.49 8.34-6.42-6.83.61-15.43 4.85-22.19 1.84zm40.8 12.33c-.2-4.07-1.26-12.44-3.78-13.9-5.28-3.08-14.66 6.22-18.64 7.64.43 1.24 1.15 2.23 1.2 3.82a11.36 11.36 0 0 1 7.25.82c-2.36.26-5 .25-6.53 1.37-.57 1.65.14 3.9-.24 6.19a79.22 79.22 0 0 0 19.05 2.63c1.38-1.79 1.84-5.19 1.68-8.57zm-91.3-10.55c-1.13-.81-8.8-10.78-9.85-10.37C101.89 219.59 88.93 229 77.34 238c11 23.71 15.51 52.75 16.29 80.74 12.66 5.92 23.77 14.45 40.94 15.34-2-14.06-3.8-26.6-4.93-39.84-4.31-1.82-10.5.08-14.54-.56 0-4.87 6.17-2.13 6.68-5.4.39-2.48-3.41-2.66-2.17-6.56 3.16 1.15 4.81 3.68 8.18 4.63 3.08-6.73 0-18.64.4-24.26.08-1.06.53-5.85 2.89-5 2.09.74-.12 12.75.11 18.08.21 4.9-.59 9.65 1.39 12.73a474.21 474.21 0 0 1 51.42-4.24c-3.95-1.69-8.64-3.3-13.79-6.2-2.79-1.57-11.58-4.84-12.39-7.49-1.28-4.22 3.37-6.47 4.17-10.09-8.38 4.57-10-4.38-12-10.72a83.27 83.27 0 0 1-3.26-13.34c-7.2-3.44-14.91-6.93-21.12-11.34zm84-9.16c11.55-5.6 13.64 20.94 9.11 29.49.7 2.55 3.11 3.53 4.09 5.82-6.45 11.55-13.61 22.33-20.19 33.74 4.89-3 11.88-.54 17.64-2.82 2.1-.83 3.63-5.65 5.22-9.51 4.38-10.61 9-24 11-34.1.46-2.31 1.72-7.33 1.44-9.38-.5-3.68-5.49-6.4-8-8.67-4.67-4.2-7.62-7.89-12.49-11.82-1.99 2.96-6.23 4.96-7.85 7.28zM99.18 112.86c-5.51 6.06-4.35 17.41-3.69 25.48 10-6.26 23.16.5 23 11.14 4.75-.13 1.78-5.93.92-9.68-2.81-12.22 4.73-25.5.34-36.67a30.19 30.19 0 0 0-20.57 9.73zm39.39-35.16c-12.46 3.53-28.44 12.59-33.56 23.79 4-.58 6.72-2.58 10.63-2.82 1.48-.1 3.42.62 5.11.2 3.39-.84 6.24-8.43 8.8-11.26s5.48-3.94 7.53-6.45c1.32-.64 3.26-.59 3.34-2.57-.56-.59-1.16-1.08-1.85-.88zm64.88 3.3c-12.94-7.3-34.83-12.79-48.59-5.93-11.1 5.54-26.11 14.7-31.23 26.3 4.78 11.2-1.42 21.47-1.81 32.84-.21 6.05 2.85 11.33 3.08 17.92-1.64 2.7-6.63 3-10.09 2.85-1.16-5.83-3.2-12.38-9.2-13-8.49-.93-14.7 6.1-15.08 13.44-.46 8.64 6.63 23 16.68 22 3.88-.38 4.83-4.28 9.07-4.24 2.29 4.57-3.54 6-4.14 9.28a26.28 26.28 0 0 0 .86 5.7c1.83 7.54 5.89 17.3 9.9 23 5.08 7.28 15.07 8.38 25.81 9.09 1.92-4.13 9-3.79 13.59-2.71-5.52-2.19-10.65-7.49-14.9-12.18-4.89-5.38-9.83-11.16-10.08-18.19 9.23 12.81 16.86 24 33.65 29.63 12.7 4.26 27.54-2 37.3-8.81 4.05-2.85 6.47-7.37 9.35-11.51 10.77-15.49 15.8-37.61 14.69-59-.46-8.84-.43-17.65-3.4-23.6-3.1-6.22-13.59-11.78-19.72-6.16-1.14-6 5.1-9.79 12.43-7.61-5.25-6.78-10.74-14.89-18.17-19.11zm24.1 199.46c10.11-5 29-13.53 35.33 0a114.86 114.86 0 0 1 6.29 18.59c1.71 7.27-1.85 22.55-9.33 25-6.6 2.15-14.3 2-22.25.43a12.13 12.13 0 0 1-2.71-3.55c-5.68-.22-11 .3-15.48 2.64.43 4.2-2.41 4.87-5.08 5.74-2 7.83 3.95 18 2.53 25.18-1 5.08-7.27 5.87-11.86 6.82a39.11 39.11 0 0 0 .51 7.57c-1.05 3.87-5.77 6.08-10.23 6.62-14.7 1.77-37 2.56-51.15-2.52-3.94-9.68-7.05-21.45-10.34-32.5-13.79 1.47-24.94-6-35.46-10.81-3.64-1.69-8.67-2.62-10-5.51s-.78-8.18-1.11-13.26c-.83-13-1.55-25.48-5-38.76-1.54-6-4.22-11.22-6.09-17-1.73-5.32-4.75-11.9-5.54-17.21-1.17-7.87 6.24-8.3 11-11.71 7.32-5.27 13.07-8.19 21-12.94 2.35-1.41 9.43-5 10.24-6.62 1.6-3.26-2.75-7.85-3.91-10.4a31.27 31.27 0 0 1-3.06-11.45 22.09 22.09 0 0 1-14.74-9.47c-5-7.39-8.53-21.06-4.17-31.45.34-.82 2-2.43 2.3-3.69.5-2.48-.93-5.77-1-8.4-.46-13.51 2.29-25.15 11.38-29.23 3.69-14.71 16.91-19.6 29.36-26.91 4.65-2.73 9.79-4.48 15.08-6.43 19-7 48.18-5.68 64 6.25 6.69 5.06 17.38 15.74 21.21 23.48 10.1 20.42 9.38 54.55 2.32 79.39a79.89 79.89 0 0 1-4.25 12.24c-1.34 2.8-5.51 8.4-5 10.87s9.51 9.38 11.43 11.23c3.47 3.35 10.06 7.79 10.59 12 .57 4.49-2 10.64-3.27 15-4.32 14.47-8.54 27.85-13.45 40.75" class="cls-3"/><path d="M160.11 180.32c.55-.73 3.56-1.84 7.78.19 0 0-5 .83-4.58 9.17l-2.08-.42s-2.15-7.56-1.11-8.94" class="cls-8"/><path fill="#1d1919" d="M196.65 252a2.29 2.29 0 1 1-4.58.09v-.1a2.29 2.29 0 0 1 4.58 0m2.29 10.63a2.29 2.29 0 1 1-4.58 0 2.29 2.29 0 0 1 4.58 0"/></svg>