<svg xmlns="http://www.w3.org/2000/svg" data-name="Layer 1" viewBox="0 0 599.33 971.75"><defs><linearGradient id="a" x1="1109.65" x2="939.1" y1="-767.53" y2="-768.69" gradientTransform="matrix(-.98 -.32 .29 -.88 1524.46 171.04)" gradientUnits="userSpaceOnUse"><stop offset=".23" stop-color="#999875"/><stop offset=".56" stop-color="#9b9977"/><stop offset=".68" stop-color="#a09f7e"/><stop offset=".77" stop-color="#a9a889"/><stop offset=".84" stop-color="#b7b69a"/><stop offset=".9" stop-color="#c9c7b0"/><stop offset=".95" stop-color="#deddcb"/><stop offset=".99" stop-color="#f8f6eb"/><stop offset="1" stop-color="#fbf9ef"/></linearGradient><linearGradient id="b" x1="1132.34" x2="886.98" y1="-473.74" y2="-898.71" gradientTransform="matrix(-.98 -.32 .29 -.88 1524.46 171.04)" gradientUnits="userSpaceOnUse"><stop offset="0" stop-color="#48a547"/><stop offset="1" stop-color="#3f9143"/></linearGradient><linearGradient id="c" x1="1161.14" x2="987.23" y1="-777.32" y2="-660.5" gradientTransform="matrix(-.98 -.32 .29 -.88 1524.46 171.04)" gradientUnits="userSpaceOnUse"><stop offset="0" stop-color="#41a247"/><stop offset=".35" stop-color="#4ba74b"/><stop offset=".96" stop-color="#67b554"/><stop offset="1" stop-color="#69b655"/></linearGradient></defs><path fill="url(#a)" d="M311.47 755.8L297 751s1.84-73.22-24.56-78.35c-17.41-20.18 2.68-861.89 65.94-2.89 0 0-21.65 10.87-25.75 29.34s-1.16 56.69-1.16 56.69z"/><path fill="url(#b)" d="M319.27 685.12s125.73-82.8 96.27-254.76c-28.37-124.93-95.33-166-102.54-181.68-7.92-11.1-15.9-30.76-15.9-30.76L302.45 566s-11.06 106.27 16.82 119.12z"/><path fill="url(#c)" d="M289.65 689.71s-117.93-80.44-111.14-222.38 90.07-211.74 106.29-224.4c10.49-11.18 10.92-15.49 11.73-26.52 7.35 15.79 6.13 235.85 6.91 261.57 3 100.14-5.54 192.83-13.79 211.73z"/></svg>