<svg xmlns="http://www.w3.org/2000/svg" id="Layer_1" data-name="Layer 1" viewBox="0 0 1205.76 1190.5"><defs><style>.cls-1{fill:#dd3735}</style></defs><path d="M362.35 531.48c1.06.8 2.9 1.32 1.06 2.9-1.32 1.84-2.9 3.42-4 5.53-1 1.85-1.84 2.37-3.42 1.06q3.15-5.14 6.3-9.5zm529 276.17c0 .78.26 1.3.26 2.1.53-1 .53-1.58.8-2.1zm0 2.36zm-53.73 102.77l-45.8-254c-.78-.25-1.83-.77-3.68-1.3a17.37 17.37 0 0 1 1.06 2.63 11 11 0 0 0 2.36-.52 1 1 0 0 1 .27-.8l45.8 254zm-47.37-311.2a7.35 7.35 0 0 0-.26 2.37 6.88 6.88 0 0 1 .28-2.38zm.26 5.26c-.26 0-.26 0-.52-.28v.26c.28.26.28.26.54 0zm-.52 2.1v-1.85c-.77.26-1.56.26-2.62.53 1.32.5 2.64.78 2.64 1.3z" class="cls-1"/><path fill="#dd3a0a" d="M995 544.92c-.52-10.28-.78-20.56-1.84-30.83-1.84-14-3.68-28.2-6.84-41.9C983.93 460.86 980 450 976 439.25c-5-12.65-10-25.56-16.32-37.68-10.26-19.5-23.68-36.9-36.05-55.08-8.18-11.6-18.7-21.08-26.6-32.94-4.47-6.85-11.05-12.64-17.63-17.9-10.53-8.45-21.58-16.1-32.63-23.47-8.42-5.8-16.84-11.33-25.8-16.34-7.1-4-14.73-7.13-22.1-10.56-8.42-3.95-16.58-8.7-26-10.54a59.1 59.1 0 0 1-6.85-2.1c-6-2.1-11.84-4.47-17.9-6.32-9.2-2.9-18.15-6.32-27.63-8.7a253.77 253.77 0 0 0-28.14-5.27c-10.52-1.55-21.3-2.1-31.84-3.13-6.84-.8-13.68-1.58-20.26-1.84-10-.52-20.26-.52-30.26-.78-5-.27-10.26-.8-15.26-.53a224.47 224.47 0 0 0-22.9 2.1c-7.36.8-14.73 2.1-21.83 3.17-8.67 1.05-17.35 1.58-26 2.64-8.16 1.06-16.58 2.64-24.73 4-2.9.53-5.8 1.58-8.7 2.1-6.3 1.32-12.88 1.85-19.2 4-11.3 3.44-22.63 7.4-33.68 11.6a309.64 309.64 0 0 0-30 14c-10 5.52-19.48 12.1-29 18.44-9 6.06-17.9 12.38-26.6 19.23a315.45 315.45 0 0 0-23.94 21.35c-4.2 4.2-7.63 9.22-11.58 14-6.57 7.65-13.15 15-19.47 22.93-5.24 6.6-10 13.44-15 20.3a335.8 335.8 0 0 0-23.66 37.94c-2.9 5.27-5.53 10.54-8.16 15.8-3.95 7.9-8.16 15.55-11.84 23.72a100.17 100.17 0 0 0-6.32 17.66c-3.67 12.92-7.36 26.1-10.78 39-3.16 11.6-3.95 23.72-4.2 35.58-.27 10.54.78 20.82 1.83 31.36.27 2.64-1.3 5.8 1.84 7.9-1.05 2.9-.26 4.5 1.3 5-1.82 2.9.8 4.76-.24 7.4-.27.52.8 1.57 1.3 2.36a9.34 9.34 0 0 0 0 2.64c.28 2.37 1.33 4.74 1.33 7.38 0 1.84 1.57 4 2.1 5.8a3.07 3.07 0 0 1-.53 2.63c-1.58 1.84-1.32 3.42 1.05 4.48a10 10 0 0 1 .54 6.6c.52 2.36-.27 3.15 0 3.68a34.68 34.68 0 0 1 3.15 13.7 10 10 0 0 0 1.06 3.43c.26 0 0 5 0 5a22.85 22.85 0 0 1 3.68-1.57 85.29 85.29 0 0 0 2.63 9.5c1.32 2.1 1.32 3.14.8 3.4 1.05 4.74 1.57 9.22 3.4 13.7a89.4 89.4 0 0 0-1.3-14.75c3.68 1.32 6.84 2.63 8.95 2.63a24 24 0 0 1 .8-2.37c-1.58-1.57-2.9-3.94-4.48-5.52a8.13 8.13 0 0 1 0 3.7c-1.05-.54-2.37-1.07-3.68-1.6a46.87 46.87 0 0 1 3.68-4.2c0-2.38-1.3-4.5-5-4.23 1.58-.52 3.16-1.3 5-1.84 2.9-1.57-.26-4.47-.26-8.16.26-4.47-2.37-9-3.16-13.7-1.32-7.37-1.05-18.44-1.84-25.82-1.58-1.32-2.9 2.1-3.16 2.37.8 6.32 1.58 12.64 2.1 19-1.57-5.27-2.63-11.07-3.94-17.4a29.21 29.21 0 0 0-.53 3.7c-1.3 1.3-.26 2.9.53 4.74a8.44 8.44 0 0 0-3.95-.52v7.38c-2.62-2.64-3.4-4.74-4.73-6.6-.52-2.1-.8-4.2-1.3-6.3.5-1.33 0-2.12 0-2.9-.28-1.86-.54-4-.8-6.34.26-.26-.26-4.2-.26-4.2a45 45 0 0 0 4.74.5c-2.63-3.4-.8-5.52.27-7.63.53-1.06 2.37-1.3 2.9-2.38 2.1-4 5.53-7.1 5.53-12.12 0-2.37.8-5 1.05-7.38.53-4.48 1.05-9 1.3-13.44.54-5.8 0-11.6 1.33-17.13 2.12-9.2 4.75-18.43 7.64-27.66 2.1-6.6 4.48-12.9 7.1-19.5 3.95-10.28 7.64-20.56 12.64-30.3 7.1-14.24 15.26-27.94 23.16-41.9 5-8.7 10.26-16.87 15.8-25.3 5.25-8.17 10.5-16.6 16.57-24.25A214.52 214.52 0 0 1 353 328.64c10.53-9.48 20.53-19.23 31.84-27.93a319.84 319.84 0 0 1 46.82-30.06C445.07 263.55 459 258 473 252.72c9-3.42 18.68-5 27.9-7.9a110.69 110.69 0 0 1 32.1-5.27c7.1-.27 14-1.06 21-1.85 6.32-.5 12.63-1 19.48-1.83a11.17 11.17 0 0 0-1.32 2.1c-2.88 4.22-6 8.44-8.94 12.65-2.37 3.43-5 7.12-7.37 10.54-4.22 5.55-8.7 11.08-12.64 16.88-6 8.7-11.58 17.66-17.9 26.35-6.3 8.43-13.15 16.34-19.73 24.5-8.68 11.34-16.84 22.93-25.52 34.26-7.9 10.8-16.3 21.1-23.94 31.9-6.84 9.47-12.9 19.5-19.48 29.23-9.73 14.5-19.47 28.72-29.2 43.22-7.64 11.06-15.27 21.87-23.16 32.94-.53.8-1.32 1-2.1 1.57-2.1 3.42-2.1 5.27-2.9 6.85-2.1 4-4.2 7.9-6.58 11.6-1.32 2.1-3.16 3.94-4.74 6-.26-3.16 4.2-4.74 2.1-8.7-1.3 2.12-2.63 4-3.94 6.07l-3.16 6.3c1 .8 2.9 1.33 1 2.9-.8 1.33-1.58 2.9-2.37 4.23a9.54 9.54 0 0 0 2.9-2.64c0 2.9-1.58 5.26-2.9 7.63-1 2.1-3.68 3.7-5.52 5.27.26.27 2.1 1.06 2.37 1.32 2.37-.8 3.16-2.1 3.43-1.32a11.59 11.59 0 0 0 1.84-2.63 9.53 9.53 0 0 1 5.25-5.8 10.44 10.44 0 0 0 2.63-2.1c7.9-8.18 16.06-16.08 23.16-24.78 11.06-13.45 21.06-27.4 31.6-41.1 4.46-5.8 9.73-11.6 14.46-17.14.78 6.06.26 11.85 0 17.4-.8 9.74-1.32 19.5-2.1 29.5-.27 4 0 7.9-.27 11.86 0 1-.8 1.84-.8 2.9 0 2.63.8 5.53.8 8.17-.8 9.75-1.86 19.23-2.65 29-.27 2.1.78 4.22 1.3 6.07-1.3 14.22 1.6 29.25-.78 44.27 1.84-2.9 2.37-4.74 2.37-6.58a33.33 33.33 0 0 0 0-5v-2.64c.25-4.75 1.3-9.75.78-14.5a49.05 49.05 0 0 1 .53-15.28c.53-2.1-.26-4.74 1.06-7.38v4c-.26 15 .27 30-1.83 45.05-.27 1.32.8 3.7-2.1 3.43-2.38 4.74.52 8.17-2.1 10.8-.54.53.5 2.9.77 4.48-1.06 3.17-1.06 3.17.52 3.43.26 5.8.8 11.06 1 16.6 4.2-10 2.1-20.3 4-30.58a103.86 103.86 0 0 1 .26 12.9c0 6.87-.26 13.45-.52 20.3a20.7 20.7 0 0 1-.53 4c-.8 3.7-1 7.38-2.37 10.8-1 2.64-.52 6.6-.52 9.75v10c1 4.48-.27 6.85.52 9.48-.8 2.65-1 3.44-.8 4.23l.8 4c5.27-.53 2.9 3.43 5 5.53-1.58 2.12-1 2.9-1 4a58.48 58.48 0 0 1-.52 6.85c0 6.06-.26 12.12-.26 17.92 0 .8.26 1.57.26 2.36 0 .54-.26 7.4-.26 7.4.53.78 0 1.57-.8 2.36-.25 0-1-33.47-1-33.47h-4c-.52 15.8.8 30-2.1 44.8-3.16.25-4.2.78-7.64.78-8.16 0-16.32 0-24.48.26-9.74 0-19.2.26-29 .26-4.72 0-9.72.54-14.46.54-6.32 0-12.9-.8-19.2-.8-9.75 0-19.22.8-29 1.06-7.1.26-14.2.26-21.3.53-4.75.25-9.5.5-14.22 1a42.17 42.17 0 0 0-6.58 1.84 22.24 22.24 0 0 0-4.2 0c-2.65.53-5 2.1-7.65 2.64-3.95.8-5 1.84-4.48 5.8v2.63c-.26.52 5.8-.8 5.8-.8-.54 0-.8 1.58-1.6 2.9 2.12-.8 3.43-1.32 4.75-1.84 3.95 1.85 7.37.8 10.52 1.6 10.26 2.62 20.78 3.7 31.3 4.73 6.85.53 13.43.8 20.27 1 9.73.53 19.47 1.06 29.2 1.06 8.16 0 16.06-.8 24.2-.8 11.3 0 22.64.52 34 .8 2.37 0 5-.28 7.63-.28h19.2c17.12-.52 34.22-.8 51.33-1.3 9.75-.28 19.75-.8 29.48-1.07l30-.8c11.58-.26 23.16-.26 34.48-.5 8.68 0 17.1-.3 25.8-.55 9.72-.26 19.72-1 29.46-1.57 5.27-.27 10.54-.8 15.8-1.32 6.32-.52 12.9-1.3 19.2-1.57 9.48-.54 19.22-.8 28.7-1.33 11.84-.78 23.68-1.83 35.78-2.1 11.06-.52 22.37-.26 33.43-.52 9.74-.27 19.48-.8 29.48-1.06l16.6-.8s11-.26 16.57-.8c9.47-.52 18.94-1.57 28.42-1.83 6-.27 12.1 0 18.15-.27 9.73-.26 19.73-.8 29.47-.8 3.67 0 7.62.54 12.36.8-2.1 1.85-3.42 2.9-5 4.22a16.6 16.6 0 0 1 3.16 1.32 7.11 7.11 0 0 1-4.2 1.3 16.42 16.42 0 0 0-1.6 4.5h4.74c-1.84 0-3.42 2.37-5.26 4-2.1-.54-3.95 0-5 2.9 1.84 1 1.58 1.83 1.32 2.9-3.16 1-5.53 2.1-4.2 5.52-1.07.52-2.38 1-3.7 1.84-1.3 2.1-3.68 2.63-3.16 5.53 1.06.25 2.1.8 2.9 1-1.32.53-2.63 1.32-3.95 1.84-4.73 2.9-2.62 4.22-1.57 5.54a11.06 11.06 0 0 1-2.37 1.32c.52 2.37 1.3 2.9 1.57 2.9-1.05.78-2.37 1.84-3.95 3.16a18.2 18.2 0 0 1-2.9 5c-1.05 1.58-1.58 3.7-2.9 5.27-5.52 6.07-9.47 13.2-16.57 17.93a56.85 56.85 0 0 0-7.37 6.6c-4.74 4.47-8.95 9.48-14 13.7-6.57 5.53-13.4 10.53-20.52 15.54-8.67 6.06-17.35 12.12-26 17.92-4.74 3.15-10 5.52-15 8.42s-9.74 5.54-14.74 8.43c-3.16 2.1-6.06 5-9.48 6.6-8.68 3.7-17.9 6.85-26.84 10.28-8.7 3.7-15 6.85-21.58 9.22a148.54 148.54 0 0 1-18.68 5c-2.1.54-4.48 0-6.85.27-4.48.8-9 1.86-13.43 2.38-11.58 1.58-23.16 2.64-34.73 4.22-6.85.8-13.43 2.1-20.27 2.9-4.73.26-9.73-.26-14.47-.26-3.42 0-7.1.8-10.53.27-5.52-.8-11-2.1-16.58-3.16-1.3-.26-3.16-.8-4.2-.26-2.1 1.06-4-.52-6.07 0-1.3.27-2.62-.8-3.94-.8-1.06-.25-2.38.28-3.7 0-2.9-.78-5.52-1.83-8.7-1.57s-6.3-1.32-9.7-2.1c-4.75-1.06-9.2-2.1-14-3.17a23.82 23.82 0 0 1-5.25-2.37c-6.85 0-11.33-.26-15.54-1.85-3.68-1.3-7.1-3.15-11-2.62-1 .26-1.83-.26-2.9-.26-.8-1.06-1.57-3.17-2.35-3.17-5.26.27-8.42-4.2-12.9-5.53-2.36-.8-4.2-3.43-6.57-4.22-5.8-2.37-10.52-7.37-17.1-8.16-2.1-.27-4.2-1.32-6.58-2.1a24 24 0 0 0 2.1 2.62c-7.63-3.7-14.73-7.9-21.84-11.86-1-.26-1.83-1.3-2.62-1.84l-7.1-4.74c-4 .8-5.53-.8-6.6-1.32-7.1-5-15.25-8.17-22.1-13.7-2.9-2.38-6.3-4-8.4-6.86a41.59 41.59 0 0 0-13.17-10.27c-3.94-2.1-7.62-4.48-11.3-6.85-1.85-1.32-3.7-2.9-3.7-5.8 0-1.85-.78-3.7-3.15-2.64-1-1.58-2.1-3.42-3.42-4-3.16-1.3-5.26-3.7-7.63-5.8s-4.2-5-7.1-6c-5.27-2.1-8.43-6.58-11.58-10.27-7.38-8.7-14-18.2-20.8-27.4a18.64 18.64 0 0 0-2.37-2.12 72.45 72.45 0 0 0 3.68 7.9 15.77 15.77 0 0 1-6-4.74c-.27.27 18.15 30.57 18.15 30.57 1.6 2.37 2.9 4.75 4.48 7.12a8.13 8.13 0 0 1-7.9-4.22c-2.36-4.2-5-6.84-10.26-6.3a45.88 45.88 0 0 1-1.3-5.8 21.07 21.07 0 0 1-3.7-.27c3.7 5.8 6.85 10.8 10.27 16.6-1.33-.8-2.1-1.32-2.65-1.58 4.73 5 8.15 11.33 14.2 14.5 1.32 6.05 8.16 8.95 9.74 14.75-1.3-.27-2.38-.53-3.7-.8-2.1-2.63-4.47-5.26-6.83-8.16a13.19 13.19 0 0 0 2.36 4.74c3.16 3.95 6.06 7.9 9.74 11.33 1.32 1.34 3.16 1.87 3.16 4.24 2.1 1.05 2.9 1.3 3.68 1.3.54 1.6-.25 4 2.9 3.44 2.1 3.95 4.2 3.95 7.1 2.64 3.43 3.43 5.28 3.7 7.64 1.6 0 1.3.26 2.62.26 3.68 1-.53.8-1.32.8-2.64 1.3 1.05 2.1 1.58 2.62 2.1 2.63 3.7 5 7.12 8.68 10 5 4.22 9.48 8.7 14.2 12.65 9.22 7.65 19.5 14 29.75 19.77 12.64 7.12 24.75 14.76 37.64 21.6 15.52 8.18 32.1 13.72 49.2 17.67 6.32 1.32 12.37 2.63 18.7 4.2 5.5 1.6 11 4 16.57 5.28 8.42 1.85 17.1 3.43 25.52 5 1.83.27 3.7.54 5.8.8 2.35.53 5.24-.53 5.77.27 1.32 2.1 2.37 1 4 .78a22.41 22.41 0 0 1 6-.53c7.37.26 14.47 1.84 21.84 1.32 1.6 0 4-1.33 5.28 1.3a18 18 0 0 1 4.73-1.3c.28 2.36 0 2.36-.5 2.62a11 11 0 0 0-2.38 1.32c9.47 1.84 18.42 2.1 26.3 0a88.4 88.4 0 0 0 36.86-4.48c1 1.32 1.84 3.16 3.42.53.52-.8 1.84-1.07 2.9-1.33 2.36-.53 5.26-1.58 7.36-.8 2.38.8 3.17-1.3 5-1.3a49 49 0 0 0 9-.8 51.11 51.11 0 0 0 5-1.58 12.75 12.75 0 0 0-5.8-1.33c3.17-1.58 6.06-2.9 9-4.2-.53.78-1.06 1.83-2.1 1.83h3.67c-.8 0-1.85 2.37-3.16 3.95 9.46-2.37 18.14-4.48 26.57-6.6-2.9-5.52 3.15-3.67 5.26-6.84a81.59 81.59 0 0 1-7.9 2.1c9-4.47 18.16-8.42 27.1-12.37-1.3 1.58-2.9 2.37-5.25 3.7a33.86 33.86 0 0 1 3.42.5c4.2 1.33 3.16-2.62 4.47-5a24.46 24.46 0 0 0 9.47-1.58c2.63-.8 5.26-1.58 7.9-2.63 4.2-1.84 8.15-4.2 12.36-6.3a11.9 11.9 0 0 1 3.16 0c2.9-1.86 3.94-3.44 4.73-3.18 3.7.53 6.3-.8 7.36-4.2 1.84-1.33 3.16-2.38 4.47-3.18 5.78-3.16 11.3-6.32 17.1-9.48 2.1 0 3.16 0 3.68-.27 3.44-1.6 6.6-3.42 9.75-5.27a22.59 22.59 0 0 1-2.63-1.3 34.66 34.66 0 0 0 5-1.33c6.3-7.4 15-12.4 21.57-18.2 2.9-.26 2.9-1.05 2.9-1.57a24.83 24.83 0 0 1 3.4-4c5.8-5.27 12.1-9.75 17.37-15.28 7.63-7.66 15-15.57 21.84-23.74 6.3-7.38 12.64-14.75 17.9-22.92 7.37-11.33 13.68-22.93 20.26-34.8 4.74-8.42 8.95-16.85 13.7-25.28.5-.8 1.57-1.85 2.36-1.85 7.1-.8 14.22-1.3 21.06-2.1a19.77 19.77 0 0 0 5-2.1c-.8-1.32-1.32-2.9-2.1-4.22-1.06-1.6-2.64-2.9-3.7-4.5a25.47 25.47 0 0 1-2.62-4.47c-.8-1.3-1.58-2.36-2.37-3.7a95.7 95.7 0 0 1-4.5-8.94c-.26-.8-.8-2.1-.52-2.9 4.74-10.27 6.58-21.34 11.05-31.62 4.47-10.54 5.8-22.4 7.9-33.73 1.84-10.8 2.9-21.6 4.2-32.4.8-7.64 1.85-15 2.1-22.66 1.6-12.12 1.06-23.46.8-34.8-.26-10-.8-20.28-1.3-30.3zM334.73 869.3c-1.84-2.1-3.42-4.48-5.26-6.58l.8-.8c2.87 3.17 5.77 6.33 8.66 9.76-1.58-.8-3.42-1.32-4.2-2.38zm4.2 2.38c.8-.27 1.6-.27 2.38-.53.8 1.32 1.32 2.9 2.1 4.48-3.68-.27-5.52-1.85-4.47-3.95zm273.7 108.83v-.8c5-.52 9.73-1.05 14.73-1.57v.77a141.58 141.58 0 0 1-14.73 1.58zm66.3-6.85c-3.67.8-7.62 1.33-11.3 1.86-1.32.26-2.9 1.58-3.42-.8-.53.27-1.06.27-1.58.54 1.3 3.94 4.47.78 7.1 2.36-5.8.8-11.3 1.32-16.84 2.1v-.52c1.6-.26 3.43-.53 5-.8v-.78a77 77 0 0 0-7.9-.53c-.77 0-1.83 1.06-2.62 1.32a13.41 13.41 0 0 1-3.42.53c-4.47.26-8.94.26-13.16.52-.27 0-.8-.26-1.06-.26v-.8c17.63-2.36 35-4.73 52.63-7.1.27.52.27 1.05.53 1.57a18.28 18.28 0 0 0-4 .8zm4-2.62c6.06-.8 11.6-1.32 17.38-2.1-12.1 3.42-16 3.94-17.37 2.1zM453.68 439c8.4-11.6 17.1-23.2 25.52-35.05 2.63-3.45 4.73-7.14 7.36-10.56a17.26 17.26 0 0 1 3.16-2.64l-.26-.5a26.19 26.19 0 0 0 2.63-3.44 50.53 50.53 0 0 0 3.18-6.85 3.85 3.85 0 0 1 1-1c3.7 1.84 3.7-2.1 5-3.43 2.37-2.64 4.74-5.53 6.84-8.17a54.39 54.39 0 0 0 4.48-6.32c.26-.8-.53-2.1-.8-3.17h-.78c.8-.52 1.58-1.3 2.37-1.84.26 0 .26 0 .52-.26 1.58-2.38 3.16-4.75 4.74-6.86a113.34 113.34 0 0 1 10.25-12.1c-.52 1.3-1 2.63-1.58 3.68.27 0 .27.27.53.27 3.16-4.22 6.58-8.17 9.74-12.4-.27-.25-.53-.52-.8-.52-1.3 1.32-2.36 2.64-3.68 4-.26-.27-.52-.53-.8-.53 2.65-3.43 5.28-6.85 7.9-10.8a38.33 38.33 0 0 1 2.1 4c1.07-2.63 2.12-4.47 2.9-6.32-.78.8-1.83 1.58-2.62 2.38l-.8-.8 4.74-7.1c5-7.12 10-14.5 15-21.62 1.85-2.63 4.2-4.74 5.8-7.38 5-10 12.9-17.92 18.94-27.14a43.12 43.12 0 0 1 4.74-5c1.3-1.6 2.37-1.06 3.42.26 7.1 9 14.2 18.18 21.3 27.14 5.28 6.6 10.54 12.9 15.54 19.76 6 8.44 11.84 16.87 17.9 25.3 6.84 9.75 13.68 19.5 20.26 29.5 10 14.77 19.47 29.53 29.47 44.28 7.37 10.8 14.74 21.35 21.84 32.15h-13.39c-12.36-.25-25-1.3-37.36-.78-16.84.8-33.94 2.64-50.78 4-21.32 1.85-42.9 2.1-64.2 2.1-7.65 0-15.28 1.07-22.9 1.6-9.22.52-18.17 1-27.38 1.3-10.8.54-21.3.8-32.1 1.07-6.06.26-12.37 0-19 0zm301.83 121.2v2.38c-.26 0-.52.27-1 .27-1-3.7-2.1-7.66-3.42-11.35-2.63-7.65-5.53-15.3-10.27-22.14-5.28-7.37-10-15-15.28-22.65a40 40 0 0 0-4.74-5c-5.53-6.07-11.06-12.4-18.16-16.87a214.85 214.85 0 0 0-32.9-16.88 73.74 73.74 0 0 1-9.2-4.74h6.3l45-.8c9.74-.25 19.22-.25 29-.78 2.36 0 3.68.8 5 2.9 2.36 4 4.73 7.9 7.36 11.86a4.83 4.83 0 0 1 .8 2.1c0 5.8 0 11.86.26 17.66.25 6.06.8 11.86 1 17.92 0 6.06-.53 12.38-.26 18.7.27 9 .53 18.2.53 27.4zm-283.16-88.25c12.37-.53 24.2-1.32 36.32-1.85 9.45-.53 19.2-.8 28.66-1.32a59.74 59.74 0 0 1 11.58 0 92.23 92.23 0 0 0-12.1 6.86c-4.74 3.16-9.2 7.37-14 10.8A78.94 78.94 0 0 0 510 498.56c-5 6-10.53 11.32-15.8 17.12-3.7 4.22-7.9 8.17-11 12.65-4.47 5.8-8.42 12.1-12.63 18.7 1.32-25 2.9-49.8 1.84-75.1zm171.85 253.5c-8.43 2.1-17.1 4.48-25.8 5.53-7.36 1.06-15 .8-22.63.8-6.86 0-13.44-.26-20.28-.8-7.63-.78-15.26-1.57-22.63-5-6.33-2.9-12.9-5.53-19.2-8.7s-12.65-6.84-17.4-12.64c-3.4-4.23-8.15-7.65-12.36-11.34a12.44 12.44 0 0 0 5.53 7.64c-1.32 1.58-3.16.8-5.8-3.43a14.21 14.21 0 0 1-2.1 1.06c.8-1.85 1.58-3.7 2.37-5.27-1-2.1-2.37-4.48-3.42-6.6-2.1-3.42-4.2-7.1-6-10.53-.53-.8-.53-1.58-1-2.37a58.94 58.94 0 0 1-3.7-4.75c-2.1-3.15-3.94-6.57-6.57-9.74 0 .8.27 1.58.27 2.64a.91.91 0 0 0-.53.26l-5.54-13.44c-.26 0-.26 0-.52.26l4.73 17.4c-.26 0-.52.25-.8.25a16.08 16.08 0 0 1-2.1-3.4c-.52-2.12-2.1-2.12-3.4-1.33a3.58 3.58 0 0 0-1.06 3.16c1.85 4.48 4 9 6.06 13.44a31.34 31.34 0 0 0 1.84 4.48c.27.53 1.06 1 1.06 1.84a46.87 46.87 0 0 0 3.16 6.06c2.37 3.16 5 6.32 7.37 9.48s4.45 6.6 6.56 9.75c.26.53 1 .53 1.3.8 1.33 4 5.8 6.84 9 5.26.8 6.06 7.37 8.17 10 14-3.16-1.32-5.52-2.37-7.63-3.43-.27.26-.27.52-.54 1a101 101 0 0 1 9.2 5 80.6 80.6 0 0 1 7.65 5 24 24 0 0 0 11.3 5.54 2.82 2.82 0 0 0-.5-1.07c7.36 3.43 15 7.12 20.78 10-27.37.54-56.58 1.07-86.85 1.6 0-5-.26-9.75-.26-14.76 0-2.1.52-4 .25-6.06-.8-12.1-.8-24.24-2.37-36.1-1.57-12.64-1.57-25-1.3-37.7.25-6.83-.27-13.94-.54-20.8 0-9.22 0-18.2.28-27.4a9.83 9.83 0 0 1 1.06-3.7h.8c.25.54 0 1.33.5 1.6.8.8 2.12 2.1 2.65 1.84 1.57-1.06 3.94-2.1 4.47-3.7a25.83 25.83 0 0 0 1.84-9.74c0-2.36 1.06-3.94 2.1-5.53a23.73 23.73 0 0 0 1.33-2.63c-1-.8-2.1-1.32-3.42-2.37 1.06-2.9.8-6.33 4.75-7.9.52-.27.52-1.6.8-2.38.25-2.13.5-4.5.78-6.6a8.46 8.46 0 0 0 1.3 1.57 4.19 4.19 0 0 1 .54-.8c0-1-.26-3.15 0-3.15 3.16-.53 1.84-4 3.42-5.53.25-.28-.27-1.07-.27-1.6s0-1.3.26-1.3c3.67-.8 3.15-4.75 5.52-6.6.8-.53 1-1.3 2.1-2.63 2.1 3.68-1.58 5.53-1.84 8.16 4.46-2.63 5.78-9 3.15-10.8a15.62 15.62 0 0 0 2.9-2.9c2.9-3.16 6-6.06 8.68-9.22 1.85-2.36 2.9-5.26 4.74-7.63 1.06-1.32 3.16-2.37 4.74-3.17 4.74-2.62 9.2-5.52 12.1-10a15.3 15.3 0 0 1 2.1-1.58c.8-.53 2.38-.53 2.64-1.32.27-.52-.52-1.84-1-2.63 1-.53 2.1-1.58 4.2-2.64-.8 1.58-1 2.64-1.58 3.7l1.3 1.3c2.38-1.84 6.06-3.94 8.43-5.52 0-.25-1.32-1.3-1.32-1.3-1.57.8-3.94 2.1-6.3 3.16.5-.8.5-1.32.8-1.58a98.26 98.26 0 0 1 11.3-6.6c9.2-4.2 18.42-8.42 27.63-12.37 1.58-.8 3.7-.26 5.53-.26a5.89 5.89 0 0 0 2.1-.26c4.2-1.32 8.42-2.64 12.63-3.7a22 22 0 0 1 5.8-.78c7.87.25 15.77.25 23.66.78a40.17 40.17 0 0 1 9.74 2.1 98.8 98.8 0 0 1 11.84 5 137.26 137.26 0 0 1 12.9 7.92c7.63 5 14.73 10.54 22.36 15a59.34 59.34 0 0 1 17.9 17.4c5.8 8.16 12.37 15.54 15 25.55l3.94 17.4c.8 3.16 2.64 6.32 1.85 10-1.33 6.6-2.38 13.45-3.43 20a27 27 0 0 0-.78 7.9c.5 8.2-2.65 15.3-5.8 22.68-1.06 2.37-2.64 4.75-4 7.38a8 8 0 0 0 2.1 1.06l2.37-4.74c.27 0 .27 0 .53.27-1.32 3.68-2.37 7.64-3.7 11.33-3.14 8.17-6.3 16.6-10.25 24.5-2.1 4.48-5.8 8.17-8.42 12.4-2.62 3.68-4.73 7.63-7.36 11.06-2.37 2.9-4.73 5.8-7.9 7.9a201.86 201.86 0 0 1-22.1 14.76c-4.73 2.9-10.26 4.48-15.52 5.8zm-140.27-14l-.26.27a6.12 6.12 0 0 1-1.86-1l-6.32-9.5a3 3 0 0 1-.52-2.62c2.9 4.48 5.8 8.7 9 12.9zm163.7 36.1c11.83-5 21.57-12.1 30.5-20.28a29.82 29.82 0 0 1 4.22-3.7c11.06-6.84 19.2-16.33 26.58-26.87 8.42-12.12 14-25.82 20.8-38.73a27.29 27.29 0 0 1 1.57-2.9c-.53 30 2.9 59.55 6.84 89.33-29.73 1-60 2.1-90.52 3.16zm266.83-7.9c-.26.53-.8 1.06-1.05 1.6a15.86 15.86 0 0 1-.53-2.4c-1.58 4.23-5 2.12-7.37 2.12-14.2.27-28.68.27-42.9.27-13.68 0-27.62 0-41.3.24-4.48 0-9.22 1-13.7 1.32-10.78.52-21.57.8-32.36 1-.8 0-1.58-1.3-2.9-2.36a18.11 18.11 0 0 1-1.58 2.37c-.28-.52-.8-1-1.33-1.83a15.34 15.34 0 0 1-.8 2.1h-.76c-.53-3.68-1.58-7.1-1.58-10.8 0-7.9.8-15.8 1-23.72.27-3.68 0-7.1 0-10.54 1.06.8 1.85 1.33 2.9 2.1a22.26 22.26 0 0 1 1.58-2.6 5.1 5.1 0 0 1-1.06-.8c.5-.27 1-.8 1-1.06a11.61 11.61 0 0 0 .8-2.1 28.42 28.42 0 0 0-.8-5 1 1 0 0 0 .8-.28l1.57 7.9h.8c-1.06-1.83 2.36-3.42-.53-5.52-.26-.27.26-1.85.26-2.64a53.2 53.2 0 0 1-2.1-5.26 6.46 6.46 0 0 1 1.84-.8 24.17 24.17 0 0 0-2.63-1.3c2.63-2.38 2.63-3.7.26-6.33.54-.25 1.06-.25 1.06-.5a32.54 32.54 0 0 0-.52-7.1c-.53-2.66.8-5.8-3.16-7.4a7.65 7.65 0 0 0 1 2.1 7.35 7.35 0 0 0-1.58.8c-3.42-3.17-1.3-7.4-2.1-12.13a39.75 39.75 0 0 1 4.47 1.6c-.53-1.86-1.84-4-2.63-6.34h-.93V629c0 .27 1.84.27 2.9.54 0-.27.25-.53.25-.8-.8-1-1.85-2.1-2.9-3.42l.53-.53c-2.1-2.62-1-6.3-1-7.1v-18.44c2.64 2.64-1.3 6.06 2.64 7.64v-2.63h-.27c-.26-4-.26-7.9-.52-11.86h-.52c-.27.54-.27.8-.54 1.33h-.52l1.58-63c2.63 3.42 5.52 6.6 7.36 10 6.06 11.08 14 20.57 21.32 30.58 6.32 8.7 12.1 18.18 17.9 27.14 7.1 10.8 13.94 21.6 21 32.4 5.26 8.18 10.8 16.35 16.3 24.26 5 7.1 10.28 14 15.54 20.82 4.46 6.06 9.2 12.12 13.67 18.18 5.27 7.38 10.53 14.75 15.8 21.87 2.62 3.68 5.52 7.37 8.4 11.06 1.6 2.1 4 3.7 5.54 5a2 2 0 0 1-1-.26 25.92 25.92 0 0 0 1.84 2.37c2.9 1.58 3.16 3.16 1.58 5.54zm13.42-65.86v-1.85c0 .52.26 1.3 0 1.84zm8.95-116.2a13 13 0 0 1-2.1-1.86c-.27.8 0 1.58-.53 2.64-.27-.78-2.1-.52-2.1-1.3-.27 3.68 1.57 7.37 1.3 11.06.8-.53 3.95-.8 4.74-1.58a2.06 2.06 0 0 0 1.06.52c-5.27 4-3.95 7.9-1.58 12.4.52 1 2.1 3.15.52 5.26-.52.53.27 2.1.53 3.43h.77v.5l-2.37.8c-.52-.8-3.67-2.36-3.67-3.7v13.46c2.63.8 2.63 4.48 3.68 6.33a7.88 7.88 0 0 0 1.07-2.1l.27.24a31.42 31.42 0 0 1-1.06 4.75 60.52 60.52 0 0 0-1.3 6.84c0 .26.5.8.5 1-2.88 6.6-1.3 14-2.35 20.8-.8 5 0 10.3-.53 15.56a132.26 132.26 0 0 1-2.64 13.7c-.27.8-.8 1-2.1 1.58a21.24 21.24 0 0 0-.27-8.17c-.28 0-3.7-1.84-4-1.84 0 3.7 2.1 8.7 2.9 12.9-.8-.26-3.95-2.1-4.2-2.1-.54 3.16-.54 7.38-.8 10.8-.27 2.64-2.63 5-2.9 7.9 0 1.6 1.84 2.64 1.58 5.28h2.1c0-5.26 2.38-10 2.38-15.54h.78c.27.53 1.06 1.06.8 1.32-.53 2.9-1.6 6.06-1.32 9 0 1.58 1.3 3.16.8 5a25.66 25.66 0 0 0-1.07 5.54 14.64 14.64 0 0 1-.53-2.63c-.26 0-2.63-.27-2.9-.27-.26 1.58 1.85 3.16 1.58 4.48-.26.26-.52.26-1.05.53l-8.68-12.66c-6.86-10-13.7-20-20.54-30.3a63.12 63.12 0 0 1-4.75-7.9 369.47 369.47 0 0 0-27.1-40.33c-7.62-9.74-13.7-20.3-20.8-30.55-6.56-9.75-13.14-19.24-19.72-29-2.37-3.15-5.26-6-7.37-9.48-6.83-10.8-12.9-21.87-19.72-32.67-5.8-9-12.1-17.67-18.16-26.36-2.1-2.9-4.2-6.07-6.32-9.23a3.66 3.66 0 0 1-.52-1.82c-.53-5.8-1.06-11.6-1.32-17.13 0-5.27.53-10.54.53-16.08v-4.74c0-1.32.25-2.37.25-3.7.25-.25.52-.78.78-1-7.63 0-15.53-.28-23.16 0-5 .25-7.63-1.86-11-5.55-10-11.33-17.37-24.24-26-36.36-8.16-11.6-16.58-22.94-25-34.27-6.85-9.22-13.7-18.18-20.53-27.4-7.64-10.54-15-21.08-22.9-31.62-9.48-12.64-19.22-25.3-29-37.94-4.5-5.8-9.5-11.33-14.5-17.4 3.43.54 6.6 1.06 9.75 1.33l12.64.8c9.47.77 18.94 1.3 28.4 2.6 7.9 1.07 15.8 2.65 24 4a338 338 0 0 1 51.06 13.18c9.74 3.16 19.2 7.38 28.7 11.33 21.3 8.7 41.57 19.24 61.57 30.3 6.3 3.43 10 9 14.72 14 6.85 7.12 13.7 14.23 20.27 21.6 7.62 8.7 14.72 17.66 22.1 26.62 6.57 7.9 13.4 15.8 20 23.72 2.1 2.37 3.7 5.27 5.52 7.9 4.2 6.33 8.95 12.4 12.63 19.24 2.62 5 4.2 10.82 6 16.35 2.62 8.17 5.26 16.07 7.9 24.24 1.83 6.06 3.4 12.4 4.72 18.7 1.06 4.23.8 8.7 2.1 12.9 1.6 5.56 0 11.6 1.6 17.15.25.53.5 1.32.78 1.85 1.05 1 1.84 2.1.26 3.68a2.93 2.93 0 0 0 0 2.1 10.31 10.31 0 0 0 1.33-1.84c0 .53.25.8.25 1a12.3 12.3 0 0 0 0 3.15 5.78 5.78 0 0 0 .78 1.84 20.91 20.91 0 0 1 2.1-1.6c2.37 9 2.64 17.93 2.64 27.15 0 8.7 1.57 17.4-2.1 25.83.78-2.9-1.06-5.55-.27-8.18z"/><path d="M788.68 660.07a.94.94 0 0 1 .52.27l-.27-.3c0-.25 0-.25-.26 0zm41.57 260.36c-2.9 2.1-5.8 3.95-9.48 4.74-.28-.26-.28-.53-.54-.8 2.9-1.84 6-3.68 9-5.53.27.5.8 1 1.06 1.57zM336.83 563.35c2.9-3.67 5.8-7.36 8.94-11 .25.26 2.35.8 2.62 1-2.9 3.7-6.85 8.7-9.74 12.65-.54-.53-1.33-2.37-1.85-2.64zM262.08 692.5c-2.1-4.48-4.2-9.23-6.3-13.7a9.1 9.1 0 0 1 2.36-1.06c2.9 4.2 4.2 9.2 6.32 13.7a20.4 20.4 0 0 1-2.37 1zM329.2 566c-1.58 2.38-3.16 5-4.74 7.4-.26-.28-3.16 1-3.42.78 1.58-2.37 5.52-6.6 7.1-9a3.93 3.93 0 0 0 1.06.8zm472.9 365.25c.25 0 .25-.26.52-.26a43.57 43.57 0 0 0 6 .52c-3.44 2.37-5.55 2.1-6.6-.26zM329.7 577.07a11.07 11.07 0 0 1 1.3-2.37 5.12 5.12 0 0 0 1.3-.27c1.07-1.84 1.07-3.16 2.12-4.74-.26-.26-.53-.26-.8-.53-1.57 1.08-3.15 2.4-4.73 3.45a1.45 1.45 0 0 1 .53 1.32c-2.1-.27-2.9.8-4 3.68-.26.8-1.58 1.06-2.9 2.1-.26.54-.52 1.86-1 3.17l.27.28a3.93 3.93 0 0 1-1.32.8c-1.58 1.57-3.42 2.9-5 4.47a7.84 7.84 0 0 0-.52 2.37c1.85-1.84 5-5.27 7.37-7.38l.27.27c1-1.58 1.84-3.16 2.9-4.74.25.26.25.52.52.8-.8 2.1-1.58 4.46-2.37 6.57-.55.26-1.34.8-1.34.53-1 .8-1.84 1.84-2.9 2.63l-4.73 3.16c-2.63 2.37-5.26 4.47-8.16 6.85-1.84 2.9-3.68 5.53-5.8 9 3.17-.8 4 .53 3.7 3.17 3.68.52 4-2.37 5-4.48.26-.54.53-1.6 1-1.86 2.37-2.1 5-3.94 7.63-6a3.57 3.57 0 0 0 .53-2.38c0-.26-1.33-.26-2.12-.53 2.37-2.64 5.8-7.1 8.16-10 1.32-.8 2.63-1.86 2.63-2.65-.26-2.9 1.58-3.68 3.7-4.74a2.9 2.9 0 0 1-1.33-1.83z" class="cls-1"/><path d="M335 574.17c-1 1.84-2.1 3.42-3.15 5.27l-1.58-.8c-1 6-4.74 11.32-8.42 12.37 1 .53 2.1 1.06 2.9.8s1.3-1.6 1.83-2.38l7.1-10.28 2.38-4-1-1zm-87.64 115.68c1.32 0 2.64.26 4.2.26 0-1 1.33-.8 1.33-1.84h.8c0 1.32.26 2.37.26 3.7h-5.52c-.27-.27-1.32-1.86-1.06-2.12zm-2.1-12.12c-.8-.8-2.1-1.58-2.1-2.37-.27-1 .52-2.35 1.3-3.67.54 1.84.8 3.42 1.32 5.27-.27.25-.53.52-.53.78zm6.58-16.87c1.05 2.66 2.1 5.56 3.16 8.2a8.25 8.25 0 0 0-2.1 1c-1.05-2.64-2.37-5.54-3.42-8.17a6.52 6.52 0 0 1 2.37-1.06zm585.8 251.94a38.94 38.94 0 0 1 5-1.3 59.57 59.57 0 0 0-5.8 4.73c-.27-.26-.53-.53-.8-.53.53-1.05 1.06-1.84 1.6-2.9zM514.18 356c1.57-1.06 2.9-1.85 4.47-2.9l.52.52c-1.6 2.1-2.9 4.2-4.75 6.85-.26-1.83-.26-2.9-.53-4.2-.26 0 0 0 .27-.26zm77.1 133.33c2.37-1.06 4.74-2.1 7.63-3.43a20.37 20.37 0 0 0-.26 3.7 9.27 9.27 0 0 0-2.65-.6c-1.58.27-4.48 2.38-5.8 2.64-.25 0 1.06-2.1 1.06-2.37zm197.4 223.46c.52 2.63 5.52 4 .52 6.58.8.55 1.57.8 2.36 1.34a2 2 0 0 1-.52 1.06c-.53.25-1.58.78-2.1.5-.27 0-.8-1-.8-1.57 0-2.37.27-4.74.53-7.9z" class="cls-1"/></svg>