<svg xmlns="http://www.w3.org/2000/svg" xmlns:xlink="http://www.w3.org/1999/xlink" data-name="Layer 1" viewBox="0 0 344 450.16"><defs><linearGradient id="a" x1="-507.23" x2="-506.82" y1="608.37" y2="608.3" gradientTransform="matrix(221.38 0 0 -296.38 112427.4 180541.77)" gradientUnits="userSpaceOnUse"><stop offset="0" stop-color="#ff6533"/><stop offset=".16" stop-color="#ff5633"/><stop offset=".43" stop-color="#ff4333"/><stop offset=".71" stop-color="#ff3733"/><stop offset="1" stop-color="#f33"/></linearGradient><linearGradient id="b" x1="-507.29" x2="-506.56" y1="608.47" y2="608.04" gradientTransform="matrix(221.38 0 0 -296.38 112427.4 180541.77)" gradientUnits="userSpaceOnUse"><stop offset="0" stop-color="#bf3338"/><stop offset="1" stop-color="#f33"/></linearGradient><linearGradient id="c" x1="-506.54" x2="-506.41" y1="608.36" y2="608.26" gradientTransform="matrix(176.67 0 0 -261.27 89617.49 159176.99)" xlink:href="#a"/><linearGradient id="d" x1="-507.08" x2="-507.11" y1="608.01" y2="608.38" gradientTransform="matrix(230.75 0 0 -274.69 117182.31 167284.83)" xlink:href="#a"/><linearGradient id="e" x1="-507.31" x2="-507.17" y1="608.41" y2="608.33" gradientTransform="matrix(241.65 0 0 -309.2 122732.76 188349.8)" gradientUnits="userSpaceOnUse"><stop offset="0" stop-color="#fbb040"/><stop offset="1" stop-color="#fb8840"/></linearGradient><linearGradient id="f" x1="-507.12" x2="-507.26" y1="608.81" y2="607.59" gradientTransform="matrix(237.67 0 0 -306.03 120701.88 186415.35)" gradientUnits="userSpaceOnUse"><stop offset="0" stop-color="#fff"/><stop offset="1" stop-color="#fff" stop-opacity="0"/></linearGradient></defs><path fill="url(#a)" d="M300 167.71a109.22 109.22 0 0 0-14.24-54.13c-24.08-24.78-76.45-30.52-89.45-.12-13.36 31.17 22.44 65.85 38.08 63.09 19.92-3.51-3.51-49.21-3.51-49.21 30.46 57.41 23.43 39.83-31.63 92.56s-111.3 164-119.5 168.66a6.74 6.74 0 0 1-1.11.59h216a5.14 5.14 0 0 0 4.57-7.44l-56.5-111.77a5.11 5.11 0 0 1 2-6.74A110 110 0 0 0 300 167.71z"/><path fill="url(#b)" d="M300 167.71a109.22 109.22 0 0 0-14.24-54.13c-24.08-24.78-76.45-30.52-89.45-.12-13.36 31.17 22.44 65.85 38.08 63.09 19.92-3.51-3.51-49.21-3.51-49.21 30.46 57.41 23.43 39.83-31.63 92.56s-111.3 164-119.5 168.66a6.74 6.74 0 0 1-1.11.59h216a5.14 5.14 0 0 0 4.57-7.44l-56.5-111.77a5.11 5.11 0 0 1 2-6.74A110 110 0 0 0 300 167.71z"/><path fill="url(#c)" d="M79.74 388.56c8.2-4.69 64.44-116 119.5-168.71s62.1-35.15 31.63-92.56c0 0-116.58 163.44-158.76 244.28"/><path fill="url(#d)" d="M96.14 242.11c78.73-144.75 89-159.34 130-159.34 21.56 0 43.29 9.72 57.35 27a110 110 0 0 0-91.91-52.14H57.88a5.1 5.1 0 0 0-5.1 5.1v269.59c8-20.56 21.5-50 43.35-90.21z"/><path fill="url(#e)" d="M199.24 219.85c-55.07 52.72-111.3 164-119.51 168.71s-22 5.27-29.29-2.93c-7.79-8.73-19.92-22.85 45.69-143.52 78.73-144.75 89-159.34 130-159.34 21.56 0 43.29 9.72 57.35 27 .76 1.23 1.52 2.52 2.28 3.81-24.08-24.78-76.45-30.52-89.45-.12-13.36 31.17 22.44 65.85 38.08 63.09 19.92-3.51-3.51-49.21-3.51-49.21 30.4 57.35 23.37 39.78-31.69 92.5z"/><path fill="url(#f)" style="isolation:isolate" d="M102.58 248.55c78.73-144.76 89-159.34 130-159.34a75.27 75.27 0 0 1 49.21 18.57 74.67 74.67 0 0 0-55.65-25c-41 0-51.32 14.59-130.05 159.34-65.57 120.67-53.44 134.79-45.65 143.51a19.15 19.15 0 0 0 3.75 3.16c-6.85-10-9.9-33.1 48.39-140.24z" opacity=".3"/></svg>