<svg xmlns="http://www.w3.org/2000/svg" id="Layer_1" data-name="Layer 1" viewBox="0 0 411 313"><defs><style>.cls-1{fill:#c00}</style></defs><path d="M352.6 208.5v18.1h32.7c6.7 0 18.2-4.9 18.6-18.6v-7a18.47 18.47 0 0 0-18.6-18.6H369V174h32.3v-18.2h-31c-8 0-18.7 6.6-18.7 18.9v6.3c0 12.3 10.6 18.6 18.7 18.6 22.5.1-5.4 0 15.4 0v8.8m-208.3-4.3s17.5-1.5 17.5-24.1-21.2-24.7-21.2-24.7h-38.2v71.3h19.2v-17.2l16.6 17.2h28.4zm-7.4-14.6h-15.3v-16.3h15.4s4.3 1.6 4.3 8.1-4.4 8.2-4.4 8.2zm72.3-33.7h-19.5c-13.9 0-18.6 12.6-18.6 18.6v52.2h19.5v-12.5H242v12.5h18.9v-52.2c0-15.2-13.8-18.6-18.6-18.6zm-.3 38.1h-18.4v-17.3s0-3.9 6.1-3.9h6.7c5.4 0 5.5 3.9 5.5 3.9v17.3h.1zm27.8-38.1h20.3v70.8h-20.3zm48.8 52.5v-52.5h-20.2v70.8h47.5v-18.3z" class="cls-1"/><path d="M15 226.6h79s-15.1-68.9 34.9-96.8c10.9-5.3 45.6-25.1 102.4 16.9 1.8-1.5 3.5-2.7 3.5-2.7s-52-51.9-109.9-46.1C95.8 100.5 60 127 39 162s-24 64.6-24 64.6z" class="cls-1"/><path d="M15 226.6h79s-15.1-68.9 34.9-96.8c10.9-5.3 45.6-25.1 102.4 16.9 1.8-1.5 3.5-2.7 3.5-2.7s-52-51.9-109.9-46.1C95.8 100.5 60 127 39 162s-24 64.6-24 64.6z" class="cls-1"/><path d="M15 226.6h79s-15.1-68.9 34.9-96.8c10.9-5.3 45.6-25.1 102.4 16.9 1.8-1.5 3.5-2.7 3.5-2.7s-52-51.9-109.9-46.1c-29.2 2.6-65 29.1-86 64.1S15 226.6 15 226.6zm164.6-123.1l.4-6.7c-.9-.5-3.4-1.7-9.7-3.5l-.4 6.6c3.3 1.1 6.5 2.3 9.7 3.6z" class="cls-1"/><path d="M170.1 124.7l-.4 6.3a55.76 55.76 0 0 1 9.9 1.2l.4-6.2a70.81 70.81 0 0 0-9.9-1.3zm-37-31.2h1l-2-6.1a79.79 79.79 0 0 0-9.6.6l1.9 5.9a84.42 84.42 0 0 1 8.7-.4zm4.8 36.8l2.3 6.9a63.27 63.27 0 0 1 8.7-3.5l-2.2-6.6a72.55 72.55 0 0 0-8.8 3.2zM92.5 104L88 97.1c-2.5 1.3-5.1 2.7-7.8 4.3l4.6 7c2.6-1.6 5.1-3.1 7.7-4.4zm20.5 45l4.8 7.2a55.53 55.53 0 0 1 5.9-7.1l-4.5-6.8a55.32 55.32 0 0 0-6.2 6.7zm-14.5 32.2l8.1 6.4a79.86 79.86 0 0 1 2.1-11.7l-7.2-5.7a95.08 95.08 0 0 0-3 11zm-43.8-47.5l-7.1-6.2c-2.6 2.5-5.1 5-7.4 7.5l7.7 6.6a101.27 101.27 0 0 1 6.8-7.9zm-30.2 44.7L13 174.2c-1.9 4.3-4 9.3-5 12l11.5 4.2c1.3-3.4 3.4-8.3 5-12zM97 206.6a101.59 101.59 0 0 0 1.2 12.6l12 4.3a132.17 132.17 0 0 1-2.4-13z" class="cls-1"/></svg>