<svg xmlns="http://www.w3.org/2000/svg" id="Layer_1" data-name="Layer 1" viewBox="0 0 318 318"><defs><style>.cls-1{fill:#010101}</style></defs><path d="M127.45 38.38c32.27-8.27 67.93-3.45 96.39 14.11 35.84 21.43 59.24 62 59.83 103.71 1.31 42.15-20.66 83.94-56 106.86-39.29 26.43-93.65 27.45-133.77 2.32C53 241 29.15 191.74 35.29 144.47c4.94-50 43.52-94 92.16-106.09z" class="cls-1"/><path fill="#fff" d="M122.5 58.8c61-24.41 135.74 20.66 142 86 9.82 58.82-39 118.59-98.59 120.32-56.68 5.66-111.45-42.39-113.06-99.3C48.68 119.77 79 74 122.5 58.8z"/><path d="M128.64 152.69c27.33-22.33 54.06-45.43 82-67.1-14.65 22.5-29.71 44.71-44.35 67.21-12.56.06-25.12.06-37.63-.12zm23.1 12.44c12.62 0 25.18 0 37.74.18-27.51 22.21-54.12 45.48-82.1 67.1 14.65-22.51 29.71-44.77 44.35-67.27z" class="cls-1"/></svg>